<svg width="71" height="34" viewBox="0 0 71 34" fill="none" xmlns="http://www.w3.org/2000/svg">
<path d="M32.2994 5.5444L32.2999 5.54514C32.3505 5.63224 35.4105 10.9207 38.6492 16.519L38.2284 16.7624L38.6492 16.519C41.7313 21.8469 44.9182 27.3552 44.994 27.4861C45.0637 27.6048 45.2131 27.6935 45.3691 27.6935C45.6123 27.6935 45.8131 27.4941 45.8131 27.2472V6.95886C45.8131 5.42857 47.054 4.18161 48.5843 4.18161C49.5629 4.18161 50.4768 4.70081 50.9686 5.54375C50.9687 5.54401 50.9689 5.54427 50.969 5.54453L50.5371 5.79633C50.5872 5.88169 53.5605 11.0246 56.7469 16.5363L56.8819 16.7696C58.9858 20.4093 61.1387 24.1331 62.316 26.1693C62.8688 27.1255 63.2064 27.7095 63.2229 27.738L32.2994 5.5444ZM32.2994 5.5444C31.8076 4.70114 30.8934 4.18161 29.9145 4.18161C28.3849 4.18161 27.1433 5.42849 27.1433 6.95886V26.8331C27.1433 26.9451 27.0844 27.1089 26.9528 27.2495C26.8257 27.3854 26.6695 27.4586 26.5165 27.4586H16.4109C10.7225 27.4586 6.0918 22.8185 6.0918 17.1132C6.0918 11.408 10.7225 6.76787 16.4109 6.76787H21.0991M32.2994 5.5444L21.0991 6.76787M21.0991 6.76787V9.76079V6.76787ZM53.5391 3.74785C53.7353 4.08395 58.8513 12.9106 60.4901 15.7382L53.5391 3.74785ZM53.5391 3.74785C52.4855 1.94243 50.4877 0.801758 48.3613 0.801758C45.0304 0.801758 42.3293 3.51063 42.3293 6.84928V15.6038L53.5391 3.74785ZM64.0299 27.6935C63.874 27.6935 63.7247 27.6049 63.655 27.4864L22.5966 23.9657C23.2333 23.9645 23.6706 23.4563 23.6685 22.8731H24.1685V22.8726V6.84928C24.1685 3.78551 26.647 1.30176 29.7005 1.30176C31.6518 1.30176 33.4839 2.35036 34.4465 3.99986L34.4466 4.00015C34.563 4.19933 36.425 7.41116 38.259 10.5753L40.7654 14.8996L41.5862 16.3158L41.8156 16.7117L41.876 16.8159L41.8915 16.8426L41.8954 16.8494L41.8964 16.8511L41.8966 16.8515C41.8967 16.8516 41.8967 16.8516 42.3293 16.6009L41.8967 16.8516L42.8293 18.4608V16.6009V6.84928C42.8293 3.78551 45.3078 1.30176 48.3613 1.30176C50.3126 1.30176 52.1447 2.35036 53.1073 3.99986L53.1073 3.99992C53.2237 4.19925 55.0857 7.4113 56.9197 10.5753L59.4262 14.8997L60.2469 16.3158L60.4764 16.7117L60.5368 16.8159L60.5523 16.8426L60.5562 16.8494L60.5572 16.8511L60.5574 16.8515C60.5575 16.8516 60.5575 16.8516 60.9901 16.6009L60.5575 16.8516L61.4901 18.4607V16.6009V1.44369H64.4733V27.2472C64.4733 27.4945 64.2727 27.6935 64.0299 27.6935Z" fill="#9CA0AC" stroke="#9CA0AC"/>
<path d="M21.0994 1.44336H16.4161C7.78462 1.44336 0.785156 8.45757 0.785156 17.1129C0.785156 25.7686 7.78464 32.7831 16.4161 32.7831H26.6185H26.6187C28.4543 32.784 29.9029 32.2471 30.8909 31.2708C31.8776 30.2959 32.4661 28.8227 32.4636 26.8287V26.8281V17.6052V15.7454L33.3962 17.3544L32.9636 17.6052C33.3962 17.3544 33.3962 17.3545 33.3962 17.3546L33.3965 17.355L33.3975 17.3567L33.4014 17.3635L33.417 17.3904L33.4778 17.4953L33.7088 17.8939L34.5347 19.3189L37.0533 23.664C38.8939 26.8394 40.7558 30.0511 40.8464 30.206L40.8467 30.2065C41.8093 31.8557 43.6414 32.9043 45.5927 32.9043C48.6464 32.9043 51.1244 30.4206 51.1244 27.3571V17.6052V15.7453L52.057 17.3544L51.6244 17.6052C52.057 17.3544 52.057 17.3545 52.057 17.3546L52.0573 17.355L52.0583 17.3567L52.0622 17.3635L52.0777 17.3902L52.1381 17.4944L52.3675 17.8903L53.1883 19.3065L55.6948 23.6309C57.5287 26.7948 59.3906 30.0068 59.5072 30.2064C60.4701 31.8557 62.3022 32.9043 64.2535 32.9043C67.3069 32.9043 69.7852 30.4206 69.7852 27.3571V1.44336H66.8016V27.2472C66.8016 28.7778 65.5607 30.0245 64.0305 30.0245C63.0516 30.0245 62.1375 29.5049 61.6455 28.662L61.6451 28.6612C61.5944 28.574 58.5364 23.2851 55.3003 17.687C53.9831 15.4088 52.6469 13.0975 51.5429 11.1878L50.9895 10.2305L49.5368 7.71782L49.1195 6.99617L49.0048 6.79798L48.9731 6.74334L48.9641 6.72785L48.9615 6.72338L48.9607 6.72203L48.9596 6.7201C48.8907 6.60196 48.741 6.51254 48.5845 6.51254C48.3416 6.51254 48.1411 6.71166 48.1411 6.95853V27.2472C48.1411 28.7779 46.8995 30.0245 45.3697 30.0245C44.3906 30.0245 43.4773 29.5048 42.9849 28.6623L42.9843 28.6612C42.9337 28.5741 39.8736 23.2856 36.6349 17.6871M21.0994 1.44336L36.6349 17.6871M21.0994 1.44336V4.43658H16.4114C9.4364 4.43658 3.76431 10.1239 3.76431 17.1129C3.76431 24.1025 9.4364 29.7896 16.4114 29.7896H26.517C28.101 29.7896 29.4713 28.4173 29.4713 26.8331V6.95853C29.4713 6.71166 29.6718 6.51254 29.9147 6.51254C30.0705 6.51254 30.2201 6.60137 30.2899 6.72035M21.0994 1.44336L30.2899 6.72035M36.6349 17.6871C35.5139 15.7495 34.3793 13.7884 33.3855 12.0707C31.6384 9.05077 30.3267 6.78347 30.2899 6.72035M36.6349 17.6871L30.2899 6.72035" fill="#9CA0AC" stroke="#9CA0AC"/>
<path d="M4.26465 17.1129C4.26465 23.8272 9.71372 29.2896 16.4114 29.2896H26.5171C27.8245 29.2896 28.9717 28.1416 28.9717 26.8328V6.95853C28.9717 6.43687 29.3947 6.01254 29.9151 6.01254C30.2436 6.01254 30.5602 6.19119 30.7221 6.46805C30.7724 6.55519 33.973 12.0872 37.0681 17.4367C40.307 23.0354 43.3663 28.3232 43.4169 28.41C43.8184 29.0975 44.5665 29.5242 45.3697 29.5242C46.6225 29.5242 47.6415 28.5027 47.6415 27.2469V6.95853C47.6415 6.43687 48.0645 6.01254 48.5849 6.01254C48.9134 6.01254 49.2303 6.19119 49.3919 6.46805C49.444 6.55723 52.6411 12.088 55.7335 17.4364C58.9699 23.0351 62.0271 28.3232 62.0777 28.41C62.4789 29.0975 63.2272 29.5242 64.0305 29.5242C65.2833 29.5242 66.302 28.5027 66.302 27.2469V0.943359H64.9739V27.2469C64.9739 27.7689 64.5509 28.1932 64.0305 28.1932C63.702 28.1932 63.3854 28.0145 63.2235 27.7377C63.1717 27.6485 59.9743 22.118 56.8825 16.7693C53.6455 11.1703 50.5886 5.88257 50.5377 5.79601C50.1365 5.10823 49.3881 4.68128 48.5849 4.68128C47.3321 4.68128 46.3134 5.70304 46.3134 6.95853V27.2469C46.3134 27.7689 45.8901 28.1932 45.3697 28.1932C45.0412 28.1932 44.7246 28.0145 44.5627 27.7377C44.5124 27.6508 41.3118 22.1189 38.2167 16.769C34.9778 11.1703 31.9185 5.88257 31.8679 5.79601C31.4667 5.10823 30.7183 4.68128 29.9151 4.68128C28.6626 4.68128 27.6439 5.70304 27.6439 6.95853V26.8328C27.6439 27.3536 27.1517 27.9583 26.5171 27.9583H16.4114C10.4458 27.9583 5.59239 23.0931 5.59239 17.1129C5.59239 11.1327 10.4458 6.26755 16.4114 6.26755H21.5994V4.93628H16.4114C9.71372 4.93628 4.26465 10.3986 4.26465 17.1129Z" fill="white"/>
</svg>
