<svg width="70" height="34" viewBox="0 0 70 34" fill="none" xmlns="http://www.w3.org/2000/svg">
<path d="M32.0148 5.44137L32.0152 5.44212C32.0658 5.52922 35.1259 10.8177 38.3645 16.4159L37.9437 16.6594L38.3646 16.416C41.4466 21.7439 44.6335 27.2521 44.7093 27.383C44.779 27.5017 44.9284 27.5905 45.0845 27.5905C45.3277 27.5905 45.5285 27.3911 45.5285 27.1442V6.85583C45.5285 5.32555 46.7694 4.07858 48.2996 4.07858C49.2782 4.07858 50.1922 4.59778 50.6839 5.44072C50.6841 5.44098 50.6842 5.44124 50.6844 5.44151L50.2524 5.6933C50.3026 5.77866 53.2758 10.9216 56.4623 16.4332L56.5972 16.6666C58.7011 20.3062 60.854 24.03 62.0313 26.0663C62.5841 27.0224 62.9218 27.6065 62.9382 27.635L32.0148 5.44137ZM32.0148 5.44137C31.5229 4.59811 30.6087 4.07858 29.6298 4.07858C28.1002 4.07858 26.8587 5.32546 26.8587 6.85583V26.7301C26.8587 26.8421 26.7997 27.0059 26.6681 27.1465C26.541 27.2824 26.3848 27.3556 26.2318 27.3556H16.1262C10.4378 27.3556 5.80713 22.7154 5.80713 17.0102C5.80713 11.305 10.4378 6.66484 16.1262 6.66484H20.8145M32.0148 5.44137L20.8145 6.66484M20.8145 6.66484V9.65776V6.66484ZM53.2544 3.64483C53.4506 3.98092 58.5666 12.8076 60.2054 15.6352L53.2544 3.64483ZM53.2544 3.64483C52.2008 1.8394 50.203 0.69873 48.0766 0.69873C44.7458 0.69873 42.0447 3.4076 42.0447 6.74625V15.5007L53.2544 3.64483ZM63.7453 27.5905C63.5893 27.5905 63.4401 27.5019 63.3703 27.3834L22.3119 23.8627C22.9486 23.8615 23.3859 23.3533 23.3839 22.7701H23.8839V22.7696V6.74625C23.8839 3.68249 26.3624 1.19873 29.4158 1.19873C31.3671 1.19873 33.1992 2.24733 34.1618 3.89684L34.162 3.89712C34.2784 4.0963 36.1403 7.30813 37.9743 10.4723L40.4807 14.7966L41.3015 16.2127L41.5309 16.6086L41.5913 16.7129L41.6068 16.7396L41.6107 16.7463L41.6117 16.748L41.612 16.7485C41.612 16.7485 41.6121 16.7486 42.0447 16.4979L41.6121 16.7486L42.5447 18.3578V16.4979V6.74625C42.5447 3.68249 45.0232 1.19873 48.0766 1.19873C50.0279 1.19873 51.86 2.24733 52.8226 3.89684L52.8226 3.89689C52.939 4.09623 54.801 7.30827 56.635 10.4723L59.1415 14.7966L59.9623 16.2127L60.1917 16.6087L60.2521 16.7129L60.2676 16.7396L60.2715 16.7463L60.2725 16.748L60.2728 16.7485C60.2728 16.7486 60.2728 16.7486 60.7054 16.4979L60.2728 16.7486L61.2054 18.3577V16.4979V1.34066H64.1887V27.1442C64.1887 27.3915 63.9881 27.5905 63.7453 27.5905Z" fill="#9CA0AC" stroke="#9CA0AC"/>
<path d="M20.8142 1.34033H16.1309C7.49946 1.34033 0.5 8.35455 0.5 17.0099C0.5 25.6656 7.49948 32.68 16.1309 32.68H26.3333H26.3336C28.1691 32.681 29.6177 32.144 30.6058 31.1678C31.5924 30.1929 32.1809 28.7196 32.1784 26.7257V26.7251V17.5021V15.6423L33.111 17.2514L32.6784 17.5021C33.111 17.2514 33.111 17.2515 33.1111 17.2515L33.1113 17.252L33.1123 17.2537L33.1163 17.2605L33.1319 17.2874L33.1927 17.3923L33.4237 17.7909L34.2496 19.2158L36.7682 23.561C38.6088 26.7364 40.4707 29.9481 40.5613 30.103L40.5615 30.1034C41.5241 31.7527 43.3562 32.8013 45.3075 32.8013C48.3612 32.8013 50.8392 30.3176 50.8392 27.254V17.5021V15.6423L51.7718 17.2514L51.3392 17.5021C51.7718 17.2514 51.7718 17.2515 51.7719 17.2516L51.7721 17.252L51.7731 17.2537L51.777 17.2604L51.7925 17.2871L51.8529 17.3914L52.0824 17.7873L52.9031 19.2034L55.4096 23.5279C57.2435 26.6918 59.1055 29.9038 59.222 30.1034C60.1849 31.7527 62.017 32.8013 63.9683 32.8013C67.0217 32.8013 69.5 30.3175 69.5 27.254V1.34033H66.5165V27.1442C66.5165 28.6748 65.2755 29.9214 63.7453 29.9214C62.7664 29.9214 61.8523 29.4019 61.3604 28.559L61.3599 28.5582C61.3092 28.471 58.2512 23.1821 55.0152 17.584C53.6979 15.3058 52.3618 12.9945 51.2577 11.0847L50.7043 10.1274L49.2517 7.61479L48.8343 6.89315L48.7196 6.69495L48.688 6.64031L48.679 6.62482L48.6764 6.62036L48.6756 6.619L48.6744 6.61708C48.6056 6.49893 48.4559 6.40952 48.2994 6.40952C48.0565 6.40952 47.856 6.60864 47.856 6.85551V27.1442C47.856 28.6749 46.6143 29.9214 45.0845 29.9214C44.1054 29.9214 43.1921 29.4018 42.6998 28.5593L42.6991 28.5582C42.6485 28.4711 39.5885 23.1826 36.3498 17.584M20.8142 1.34033L36.3498 17.584M20.8142 1.34033V4.33355H16.1262C9.15125 4.33355 3.47916 10.0209 3.47916 17.0099C3.47916 23.9995 9.15125 29.6865 16.1262 29.6865H26.2319C27.8158 29.6865 29.1862 28.3143 29.1862 26.73V6.85551C29.1862 6.60864 29.3867 6.40952 29.6296 6.40952C29.7854 6.40952 29.935 6.49835 30.0048 6.61733M20.8142 1.34033L30.0048 6.61733M36.3498 17.584C35.2288 15.6465 34.0942 13.6853 33.1004 11.9676C31.3532 8.94774 30.0415 6.68044 30.0048 6.61733M36.3498 17.584L30.0048 6.61733" fill="#9CA0AC" stroke="#9CA0AC"/>
<path d="M3.97949 17.0104C3.97949 23.7247 9.42856 29.187 16.1263 29.187H26.2319C27.5393 29.187 28.6865 28.0391 28.6865 26.7302V6.856C28.6865 6.33433 29.1095 5.91 29.6299 5.91C29.9584 5.91 30.275 6.08865 30.437 6.36551C30.4873 6.45265 33.6879 11.9846 36.7829 17.3342C40.0219 22.9329 43.0812 28.2206 43.1318 28.3075C43.5333 28.995 44.2813 29.4216 45.0846 29.4216C46.3373 29.4216 47.3563 28.4002 47.3563 27.1444V6.856C47.3563 6.33433 47.7793 5.91 48.2997 5.91C48.6282 5.91 48.9451 6.08865 49.1068 6.36551C49.1588 6.45469 52.3559 11.9855 55.4484 17.3339C58.6847 22.9326 61.742 28.2206 61.7926 28.3075C62.1938 28.995 62.9421 29.4216 63.7454 29.4216C64.9981 29.4216 66.0168 28.4002 66.0168 27.1444V0.84082H64.6888V27.1444C64.6888 27.6663 64.2658 28.0907 63.7454 28.0907C63.4169 28.0907 63.1003 27.912 62.9383 27.6351C62.8866 27.546 59.6892 22.0154 56.5973 16.6668C53.3604 11.0678 50.3034 5.78003 50.2525 5.69347C49.8513 5.00569 49.103 4.57874 48.2997 4.57874C47.047 4.57874 46.0283 5.6005 46.0283 6.856V27.1444C46.0283 27.6663 45.605 28.0907 45.0846 28.0907C44.7561 28.0907 44.4395 27.912 44.2775 27.6351C44.2272 27.5483 41.0266 22.0163 37.9316 16.6665C34.6926 11.0678 31.6333 5.78003 31.5827 5.69347C31.1815 5.00569 30.4332 4.57874 29.6299 4.57874C28.3775 4.57874 27.3588 5.6005 27.3588 6.856V26.7302C27.3588 27.251 26.8666 27.8558 26.2319 27.8558H16.1263C10.1606 27.8558 5.30723 22.9906 5.30723 17.0104C5.30723 11.0302 10.1606 6.16501 16.1263 6.16501H21.3143V4.83375H16.1263C9.42856 4.83375 3.97949 10.2961 3.97949 17.0104Z" fill="white"/>
</svg>
