<svg width="71" height="34" viewBox="0 0 71 34" fill="none" xmlns="http://www.w3.org/2000/svg">
<path d="M32.7296 5.5444L32.7301 5.54514C32.7807 5.63224 35.8407 10.9207 39.0794 16.519L38.6585 16.7624L39.0794 16.519C42.1615 21.8469 45.3484 27.3552 45.4241 27.4861C45.4938 27.6048 45.6432 27.6935 45.7993 27.6935C46.0425 27.6935 46.2433 27.4941 46.2433 27.2472V6.95886C46.2433 5.42857 47.4842 4.18161 49.0144 4.18161C49.993 4.18161 50.907 4.70081 51.3988 5.54375C51.3989 5.54401 51.3991 5.54427 51.3992 5.54453L50.9672 5.79633C51.0174 5.88169 53.9907 11.0246 57.1771 16.5363L57.312 16.7696C59.416 20.4093 61.5689 24.1331 62.7461 26.1693C63.2989 27.1255 63.6366 27.7095 63.653 27.738L32.7296 5.5444ZM32.7296 5.5444C32.2377 4.70114 31.3236 4.18161 30.3446 4.18161C28.8151 4.18161 27.5735 5.42849 27.5735 6.95886V26.8331C27.5735 26.9451 27.5146 27.1089 27.383 27.2495C27.2558 27.3854 27.0997 27.4586 26.9466 27.4586H16.841C11.1526 27.4586 6.52197 22.8185 6.52197 17.1132C6.52197 11.408 11.1526 6.76787 16.841 6.76787H21.5293M32.7296 5.5444L21.5293 6.76787M21.5293 6.76787V9.76079V6.76787ZM53.9693 3.74785C54.1655 4.08395 59.2814 12.9106 60.9203 15.7382L53.9693 3.74785ZM53.9693 3.74785C52.9157 1.94243 50.9178 0.801758 48.7915 0.801758C45.4606 0.801758 42.7595 3.51063 42.7595 6.84928V15.6038L53.9693 3.74785ZM64.4601 27.6935C64.3042 27.6935 64.1549 27.6049 64.0851 27.4864L23.0268 23.9657C23.6635 23.9645 24.1007 23.4563 24.0987 22.8731H24.5987V22.8726V6.84928C24.5987 3.78551 27.0772 1.30176 30.1307 1.30176C32.082 1.30176 33.914 2.35036 34.8766 3.99986L34.8768 4.00015C34.9932 4.19933 36.8551 7.41116 38.6892 10.5753L41.1956 14.8996L42.0163 16.3158L42.2458 16.7117L42.3062 16.8159L42.3217 16.8426L42.3256 16.8494L42.3266 16.8511L42.3268 16.8515C42.3269 16.8516 42.3269 16.8516 42.7595 16.6009L42.3269 16.8516L43.2595 18.4608V16.6009V6.84928C43.2595 3.78551 45.738 1.30176 48.7915 1.30176C50.7428 1.30176 52.5748 2.35036 53.5374 3.99986L53.5375 3.99992C53.6538 4.19925 55.5159 7.4113 57.3499 10.5753L59.8563 14.8997L60.6771 16.3158L60.9066 16.7117L60.967 16.8159L60.9825 16.8426L60.9864 16.8494L60.9874 16.8511L60.9876 16.8515C60.9877 16.8516 60.9877 16.8516 61.4203 16.6009L60.9877 16.8516L61.9203 18.4607V16.6009V1.44369H64.9035V27.2472C64.9035 27.4945 64.7029 27.6935 64.4601 27.6935Z" fill="#9CA0AC" stroke="#9CA0AC"/>
<path d="M21.5291 1.44336H16.8457C8.21431 1.44336 1.21484 8.45757 1.21484 17.1129C1.21484 25.7686 8.21433 32.7831 16.8457 32.7831H27.0482H27.0484C28.884 32.784 30.3325 32.2471 31.3206 31.2708C32.3073 30.2959 32.8957 28.8227 32.8933 26.8287V26.8281V17.6052V15.7454L33.8259 17.3544L33.3933 17.6052C33.8259 17.3544 33.8259 17.3545 33.8259 17.3546L33.8262 17.355L33.8272 17.3567L33.8311 17.3635L33.8467 17.3904L33.9075 17.4953L34.1385 17.8939L34.9644 19.3189L37.483 23.664C39.3236 26.8394 41.1855 30.0511 41.2761 30.206L41.2764 30.2065C42.239 31.8557 44.0711 32.9043 46.0224 32.9043C49.0761 32.9043 51.5541 30.4206 51.5541 27.3571V17.6052V15.7453L52.4866 17.3544L52.0541 17.6052C52.4866 17.3544 52.4867 17.3545 52.4867 17.3546L52.487 17.355L52.488 17.3567L52.4919 17.3635L52.5074 17.3902L52.5678 17.4944L52.7972 17.8903L53.618 19.3065L56.1245 23.6309C57.9584 26.7948 59.8203 30.0068 59.9368 30.2064C60.8997 31.8557 62.7319 32.9043 64.6832 32.9043C67.7366 32.9043 70.2148 30.4206 70.2148 27.3571V1.44336H67.2313V27.2472C67.2313 28.7778 65.9904 30.0245 64.4602 30.0245C63.4813 30.0245 62.5671 29.5049 62.0752 28.662L62.0747 28.6612C62.0241 28.574 58.966 23.2851 55.73 17.687C54.4128 15.4088 53.0766 13.0975 51.9726 11.1878L51.4192 10.2305L49.9665 7.71782L49.5492 6.99617L49.4345 6.79798L49.4028 6.74334L49.3938 6.72785L49.3912 6.72338L49.3904 6.72203L49.3893 6.7201C49.3204 6.60196 49.1707 6.51254 49.0142 6.51254C48.7713 6.51254 48.5708 6.71166 48.5708 6.95853V27.2472C48.5708 28.7779 47.3292 30.0245 45.7994 30.0245C44.8203 30.0245 43.907 29.5048 43.4146 28.6623L43.414 28.6612C43.3634 28.5741 40.3033 23.2856 37.0646 17.6871M21.5291 1.44336L37.0646 17.6871M21.5291 1.44336V4.43658H16.8411C9.86609 4.43658 4.194 10.1239 4.194 17.1129C4.194 24.1025 9.86609 29.7896 16.8411 29.7896H26.9467C28.5307 29.7896 29.901 28.4173 29.901 26.8331V6.95853C29.901 6.71166 30.1015 6.51254 30.3444 6.51254C30.5002 6.51254 30.6498 6.60137 30.7196 6.72035M21.5291 1.44336L30.7196 6.72035M37.0646 17.6871C35.9436 15.7495 34.809 13.7884 33.8152 12.0707C32.0681 9.05077 30.7564 6.78347 30.7196 6.72035M37.0646 17.6871L30.7196 6.72035" fill="#9CA0AC" stroke="#9CA0AC"/>
<path d="M4.69434 17.1129C4.69434 23.8272 10.1434 29.2896 16.8411 29.2896H26.9468C28.2541 29.2896 29.4013 28.1416 29.4013 26.8328V6.95853C29.4013 6.43687 29.8244 6.01254 30.3447 6.01254C30.6733 6.01254 30.9899 6.19119 31.1518 6.46805C31.2021 6.55519 34.4027 12.0872 37.4978 17.4367C40.7367 23.0354 43.796 28.3232 43.8466 28.41C44.2481 29.0975 44.9961 29.5242 45.7994 29.5242C47.0522 29.5242 48.0711 28.5027 48.0711 27.2469V6.95853C48.0711 6.43687 48.4942 6.01254 49.0146 6.01254C49.3431 6.01254 49.66 6.19119 49.8216 6.46805C49.8736 6.55723 53.0708 12.088 56.1632 17.4364C59.3996 23.0351 62.4568 28.3232 62.5074 28.41C62.9086 29.0975 63.6569 29.5242 64.4602 29.5242C65.713 29.5242 66.7317 28.5027 66.7317 27.2469V0.943359H65.4036V27.2469C65.4036 27.7689 64.9806 28.1932 64.4602 28.1932C64.1317 28.1932 63.8151 28.0145 63.6532 27.7377C63.6014 27.6485 60.404 22.118 57.3122 16.7693C54.0752 11.1703 51.0182 5.88257 50.9674 5.79601C50.5662 5.10823 49.8178 4.68128 49.0146 4.68128C47.7618 4.68128 46.7431 5.70304 46.7431 6.95853V27.2469C46.7431 27.7689 46.3198 28.1932 45.7994 28.1932C45.4709 28.1932 45.1543 28.0145 44.9924 27.7377C44.9421 27.6508 41.7415 22.1189 38.6464 16.769C35.4074 11.1703 32.3481 5.88257 32.2976 5.79601C31.8964 5.10823 31.148 4.68128 30.3447 4.68128C29.0923 4.68128 28.0736 5.70304 28.0736 6.95853V26.8328C28.0736 27.3536 27.5814 27.9583 26.9468 27.9583H16.8411C10.8754 27.9583 6.02208 23.0931 6.02208 17.1129C6.02208 11.1327 10.8754 6.26755 16.8411 6.26755H22.0291V4.93628H16.8411C10.1434 4.93628 4.69434 10.3986 4.69434 17.1129Z" fill="white"/>
</svg>
