<svg width="9" height="9" viewBox="0 0 9 9" fill="none" xmlns="http://www.w3.org/2000/svg">
<g clip-path="url(#clip0_402_994)">
<path d="M6.4904 0.330566L3.10025 0.330566C1.72247 0.330566 0.601562 1.45147 0.601562 2.82926L0.601562 6.2194C0.601562 7.59718 1.72247 8.71809 3.10025 8.71809L6.4904 8.71809C7.86818 8.71809 8.98909 7.59718 8.98909 6.2194L8.98909 2.82926C8.98907 1.45147 7.86817 0.330566 6.4904 0.330566ZM8.1453 6.2194C8.1453 7.13337 7.40437 7.87431 6.4904 7.87431H3.10025C2.18628 7.87431 1.44535 7.13337 1.44535 6.2194L1.44535 2.82926C1.44535 1.91527 2.18628 1.17435 3.10025 1.17435L6.4904 1.17435C7.40437 1.17435 8.1453 1.91527 8.1453 2.82926V6.2194Z" fill="white"/>
<path d="M4.79626 2.35425C3.6001 2.35425 2.62695 3.3274 2.62695 4.52354C2.62695 5.71969 3.6001 6.69286 4.79626 6.69286C5.99243 6.69286 6.96558 5.7197 6.96558 4.52354C6.96558 3.32738 5.99243 2.35425 4.79626 2.35425ZM4.79626 5.84909C4.06419 5.84909 3.47074 5.25563 3.47074 4.52356C3.47074 3.79149 4.06421 3.19803 4.79626 3.19803C5.52834 3.19803 6.12179 3.79149 6.12179 4.52356C6.12179 5.25562 5.52832 5.84909 4.79626 5.84909Z" fill="white"/>
<path d="M6.96903 2.88997C7.25611 2.88997 7.48884 2.65724 7.48884 2.37015C7.48884 2.08307 7.25611 1.85034 6.96903 1.85034C6.68195 1.85034 6.44922 2.08307 6.44922 2.37015C6.44922 2.65724 6.68195 2.88997 6.96903 2.88997Z" fill="white"/>
</g>
<defs>
<clipPath id="clip0_402_994">
<rect width="8.38752" height="8.38752" fill="white" transform="translate(0.601562 0.330322)"/>
</clipPath>
</defs>
</svg>
