<svg width="10" height="10" viewBox="0 0 10 10" fill="none" xmlns="http://www.w3.org/2000/svg">
<g clip-path="url(#clip0_402_495)">
<path d="M7.2504 0.269043L3.51943 0.269043C2.00313 0.269043 0.769531 1.50264 0.769531 3.01894L0.769531 6.74992C0.769531 8.26621 2.00313 9.49981 3.51943 9.49981L7.2504 9.49981C8.7667 9.49981 10.0003 8.26621 10.0003 6.74992L10.0003 3.01894C10.0003 1.50264 8.76669 0.269043 7.2504 0.269043ZM9.07168 6.74992C9.07168 7.75577 8.25626 8.5712 7.2504 8.5712L3.51943 8.5712C2.51357 8.5712 1.69815 7.75577 1.69815 6.74992L1.69815 3.01894C1.69815 2.01306 2.51357 1.19766 3.51943 1.19766L7.2504 1.19766C8.25626 1.19766 9.07168 2.01306 9.07168 3.01894L9.07168 6.74992Z" fill="white"/>
<path d="M5.38448 2.49658C4.06806 2.49658 2.99707 3.56757 2.99707 4.88397C2.99707 6.20037 4.06806 7.27138 5.38448 7.27138C6.70089 7.27138 7.77188 6.20039 7.77188 4.88397C7.77188 3.56755 6.70089 2.49658 5.38448 2.49658ZM5.38448 6.34278C4.5788 6.34278 3.92569 5.68966 3.92569 4.88399C3.92569 4.07831 4.57882 3.4252 5.38448 3.4252C6.19015 3.4252 6.84327 4.07831 6.84327 4.88399C6.84327 5.68964 6.19013 6.34278 5.38448 6.34278Z" fill="white"/>
<path d="M7.77617 3.08701C8.09212 3.08701 8.34824 2.83089 8.34824 2.51494C8.34824 2.199 8.09212 1.94287 7.77617 1.94287C7.46023 1.94287 7.2041 2.199 7.2041 2.51494C7.2041 2.83089 7.46023 3.08701 7.77617 3.08701Z" fill="white"/>
</g>
<defs>
<clipPath id="clip0_402_495">
<rect width="9.23077" height="9.23077" fill="white" transform="translate(0.769531 0.269043)"/>
</clipPath>
</defs>
</svg>
