<svg width="12" height="12" viewBox="0 0 12 12" fill="none" xmlns="http://www.w3.org/2000/svg">
<g clip-path="url(#clip0_402_320)">
<path d="M8.5088 0.183105L3.77059 0.183105C1.84495 0.183105 0.27832 1.74973 0.27832 3.67538L0.27832 8.41359C0.27832 10.3392 1.84495 11.9059 3.77059 11.9059L8.5088 11.9059C10.4344 11.9059 12.0011 10.3392 12.0011 8.41359L12.0011 3.67538C12.0011 1.74973 10.4344 0.183105 8.5088 0.183105ZM10.8218 8.41359C10.8218 9.69099 9.7862 10.7265 8.5088 10.7265L3.77059 10.7265C2.49319 10.7265 1.45763 9.69099 1.45763 8.41359L1.45763 3.67538C1.45763 2.39795 2.49319 1.36241 3.77059 1.36241L8.5088 1.36241C9.7862 1.36241 10.8218 2.39795 10.8218 3.67538L10.8218 8.41359Z" fill="white"/>
<path d="M6.14032 3.01221C4.46852 3.01221 3.1084 4.37232 3.1084 6.04411C3.1084 7.71589 4.46852 9.07603 6.14032 9.07603C7.81212 9.07603 9.17224 7.71591 9.17224 6.04411C9.17224 4.3723 7.81212 3.01221 6.14032 3.01221ZM6.14032 7.89674C5.11714 7.89674 4.28771 7.06731 4.28771 6.04413C4.28771 5.02095 5.11716 4.19152 6.14032 4.19152C7.1635 4.19152 7.99293 5.02095 7.99293 6.04413C7.99293 7.06728 7.16348 7.89674 6.14032 7.89674Z" fill="white"/>
<path d="M9.17768 3.76113C9.57892 3.76113 9.90419 3.43586 9.90419 3.03462C9.90419 2.63338 9.57892 2.30811 9.17768 2.30811C8.77644 2.30811 8.45117 2.63338 8.45117 3.03462C8.45117 3.43586 8.77644 3.76113 9.17768 3.76113Z" fill="white"/>
</g>
<defs>
<clipPath id="clip0_402_320">
<rect width="11.7228" height="11.7228" fill="white" transform="translate(0.27832 0.183105)"/>
</clipPath>
</defs>
</svg>
