<svg width="18" height="18" viewBox="0 0 18 18" fill="none" xmlns="http://www.w3.org/2000/svg">
<g clip-path="url(#clip0_402_1503)">
<path d="M12.5089 0.499878L5.66745 0.499878C2.88703 0.499878 0.625 2.76191 0.625 5.54233L0.625 12.3838C0.625 15.1642 2.88703 17.4262 5.66745 17.4262L12.5089 17.4262C15.2893 17.4262 17.5514 15.1642 17.5514 12.3838L17.5514 5.54233C17.5513 2.76191 15.2893 0.499878 12.5089 0.499878ZM15.8486 12.3838C15.8486 14.2282 14.3533 15.7234 12.5089 15.7234H5.66745C3.82302 15.7234 2.32779 14.2282 2.32779 12.3838L2.32779 5.54233C2.32779 3.69787 3.82302 2.20267 5.66745 2.20267L12.5089 2.20267C14.3533 2.20267 15.8486 3.69787 15.8486 5.54233V12.3838Z" fill="white"/>
<path d="M9.09163 4.58453C6.67773 4.58453 4.71387 6.54839 4.71387 8.96226C4.71387 11.3761 6.67773 13.34 9.09163 13.34C11.5055 13.34 13.4694 11.3762 13.4694 8.96226C13.4694 6.54836 11.5055 4.58453 9.09163 4.58453ZM9.09163 11.6373C7.61427 11.6373 6.41666 10.4396 6.41666 8.96229C6.41666 7.48494 7.6143 6.28732 9.09163 6.28732C10.569 6.28732 11.7666 7.48494 11.7666 8.96229C11.7666 10.4396 10.569 11.6373 9.09163 11.6373Z" fill="white"/>
<path d="M13.4728 5.66606C14.0522 5.66606 14.5218 5.1964 14.5218 4.61705C14.5218 4.03771 14.0522 3.56805 13.4728 3.56805C12.8935 3.56805 12.4238 4.03771 12.4238 4.61705C12.4238 5.1964 12.8935 5.66606 13.4728 5.66606Z" fill="white"/>
</g>
<defs>
<clipPath id="clip0_402_1503">
<rect width="16.9264" height="16.9264" fill="white" transform="translate(0.625 0.499817)"/>
</clipPath>
</defs>
</svg>
