<svg width="101" height="30" viewBox="0 0 101 30" fill="none" xmlns="http://www.w3.org/2000/svg">
<path d="M18.1777 27.441H18.6777V26.941V3.26768V2.76768H18.1777H3.65705H3.15705V3.26768V26.941V27.441H3.65705H18.1777ZM20.6304 29.4255H1.21484V0.78125H20.6304V29.4255Z" fill="#9CA0AC" stroke="#9CA0AC"/>
<mask id="path-2-inside-1_402_3532" fill="white">
<path d="M33.2967 10.6166H33.2681C31.6394 7.96388 29.9952 5.62067 28.3369 3.26187H27.0716V13.58H28.4681V6.17996H28.4821C30.1269 8.84831 31.7701 11.2071 33.4289 13.58H34.6942V3.26187H33.2967V10.6166ZM43.3776 13.58L40.1334 3.26187H38.6796L35.159 13.58H36.6716L37.5595 10.7644H40.6279L41.4284 13.58H43.3776ZM38.0098 9.49604C38.4173 8.13976 38.8249 6.88901 39.1882 5.29504H39.2178C39.6254 6.88851 39.9887 8.13976 40.3671 9.49604H38.0098ZM45.0208 13.58H46.7666V4.6478H49.4434V3.26187H42.345V4.6478H45.0213V13.58H45.0208ZM51.7409 3.26187H50.0103V13.58H51.7409V3.26187ZM57.1244 13.7558C59.7867 13.7558 61.445 11.3538 61.445 8.27293C61.445 5.38398 59.6113 3.08398 57.1244 3.08398C54.6364 3.08398 52.8027 5.38398 52.8027 8.27293C52.8027 11.3543 54.461 13.7558 57.1244 13.7558ZM57.1244 4.55886C58.8555 4.55886 59.5821 6.37142 59.5821 8.27343C59.5821 10.2483 58.9429 12.2825 57.1244 12.2825C55.3058 12.2825 54.6661 10.2488 54.6661 8.27343C54.6661 6.37142 55.3932 4.55886 57.1244 4.55886ZM63.9017 6.17996H63.9178C65.561 8.84831 67.2043 11.2071 68.863 13.58H70.1284V3.26187H68.7319V10.6166H68.7027C67.0741 7.96388 65.4299 5.62067 63.7716 3.26187H62.5063V13.58H63.9017V6.17996ZM72.9927 10.7644H76.063L76.863 13.58H78.8118L75.5686 3.26187H74.1138L70.5927 13.58H72.1073L72.9927 10.7644ZM74.6238 5.29504H74.6525C75.059 6.88851 75.4228 8.13976 75.8022 9.49604H73.444C73.8525 8.13976 74.2585 6.88851 74.6238 5.29504ZM84.4992 12.1935H81.0525V3.26187H79.3208V13.58H84.4997V12.1935H84.4992ZM31.8736 25.381C31.5093 25.5729 31.1173 25.6322 30.652 25.6322C29.154 25.6322 27.6992 24.187 27.6992 21.7408C27.6992 19.3976 28.9646 17.9081 30.8269 17.9081C31.4962 17.9081 32.2233 18.1584 32.6887 18.4528L33.2555 17.2302C32.6741 16.787 31.7284 16.4337 30.7826 16.4337C27.7284 16.4337 25.8369 18.8955 25.8369 21.7106C25.8369 24.7473 27.7284 27.1061 30.7238 27.1061C31.7133 27.1061 32.6882 26.8423 33.6198 26.4719V22.2111H31.8736V25.381ZM36.9495 22.2121H39.8012V20.8272H36.9495V17.9971H39.8595V16.6116H35.2048V26.9297H40.3831V25.5428H36.9495V22.2121ZM45.2419 16.4342C42.754 16.4342 40.9218 18.7337 40.9218 21.6232C40.9218 24.7036 42.5796 27.1066 45.2419 27.1066C47.9037 27.1066 49.5615 24.7036 49.5615 21.6232C49.5615 18.7337 47.7289 16.4342 45.2419 16.4342ZM45.2419 25.6322C43.4228 25.6322 42.7831 23.5981 42.7831 21.6227C42.7831 19.7207 43.5103 17.9076 45.2419 17.9076C46.9726 17.9076 47.6997 19.7202 47.6997 21.6227C47.6997 23.5981 47.0605 25.6322 45.2419 25.6322ZM56.1952 25.381C55.8319 25.5729 55.4384 25.6322 54.9731 25.6322C53.4746 25.6322 52.0198 24.187 52.0198 21.7408C52.0198 19.3976 53.2857 17.9081 55.1485 17.9081C55.8173 17.9081 56.545 18.1584 57.0088 18.4528L57.5766 17.2302C56.9952 16.787 56.049 16.4337 55.1027 16.4337C52.0495 16.4337 50.1585 18.8955 50.1585 21.7106C50.1585 24.7473 52.0495 27.1061 55.0465 27.1061C56.0344 27.1061 57.0088 26.8423 57.9409 26.4719V22.2111H56.1952V25.381ZM65.4178 19.5895C65.4178 17.5835 64.2098 16.6116 62.2615 16.6116H59.5409V26.9297H61.2862V23.0383H62.0716L63.7153 26.9297H65.7078L63.658 22.6543C64.7766 22.0503 65.4178 20.8272 65.4178 19.5895ZM62.0138 21.7111C61.8384 21.7262 61.4304 21.7413 61.2857 21.7558V17.9976H62.058C63.0892 17.9976 63.6706 18.6006 63.6706 19.6624C63.6706 21.0473 62.8429 21.6674 62.0138 21.7111ZM69.258 16.6116L65.7369 26.9297H67.249L68.1369 24.1136H71.2063L72.0083 26.9297H73.956L70.7118 16.6116H69.258ZM68.5892 22.8473C68.9962 21.49 69.4032 20.2373 69.7671 18.6458H69.7967C70.2033 20.2373 70.5671 21.49 70.946 22.8473H68.5892ZM86.7284 20.5764H83.1058V16.6116H81.3746V26.9297H83.1058V21.9614H86.7284V26.9297H88.4731V16.6398H86.7284V20.5764ZM90.1455 26.9287H91.8761V16.6116H90.1455V26.9287ZM97.9862 25.6322C96.2987 25.6322 94.8726 24.187 94.8726 21.7408C94.8726 19.3976 96.1686 17.9081 97.9424 17.9081C98.6118 17.9081 99.3103 18.2172 99.7324 18.4825L100.285 17.2307C99.6882 16.8177 98.8455 16.4342 97.9429 16.4342C94.9027 16.4342 93.0259 18.896 93.0259 21.7111C93.0259 24.7478 94.9173 27.1066 97.9148 27.1066C98.758 27.1066 99.6887 26.7674 100.212 26.3996L99.7329 25.1166C99.2816 25.4111 98.6555 25.6322 97.9862 25.6322ZM77.2284 16.6116H74.5098V26.9297H76.2555V23.0383H77.0399C79.1213 23.0383 80.3857 21.3272 80.3857 19.5895C80.3852 17.5835 79.1791 16.6116 77.2284 16.6116ZM76.9816 21.7111C76.8073 21.7247 76.3862 21.7388 76.255 21.7523V17.9971H77.0394C78.0585 17.9971 78.6404 18.6001 78.6404 19.6619C78.6399 21.0473 77.8108 21.6674 76.9816 21.7111Z"/>
</mask>
<path d="M33.2967 10.6166H33.2681C31.6394 7.96388 29.9952 5.62067 28.3369 3.26187H27.0716V13.58H28.4681V6.17996H28.4821C30.1269 8.84831 31.7701 11.2071 33.4289 13.58H34.6942V3.26187H33.2967V10.6166ZM43.3776 13.58L40.1334 3.26187H38.6796L35.159 13.58H36.6716L37.5595 10.7644H40.6279L41.4284 13.58H43.3776ZM38.0098 9.49604C38.4173 8.13976 38.8249 6.88901 39.1882 5.29504H39.2178C39.6254 6.88851 39.9887 8.13976 40.3671 9.49604H38.0098ZM45.0208 13.58H46.7666V4.6478H49.4434V3.26187H42.345V4.6478H45.0213V13.58H45.0208ZM51.7409 3.26187H50.0103V13.58H51.7409V3.26187ZM57.1244 13.7558C59.7867 13.7558 61.445 11.3538 61.445 8.27293C61.445 5.38398 59.6113 3.08398 57.1244 3.08398C54.6364 3.08398 52.8027 5.38398 52.8027 8.27293C52.8027 11.3543 54.461 13.7558 57.1244 13.7558ZM57.1244 4.55886C58.8555 4.55886 59.5821 6.37142 59.5821 8.27343C59.5821 10.2483 58.9429 12.2825 57.1244 12.2825C55.3058 12.2825 54.6661 10.2488 54.6661 8.27343C54.6661 6.37142 55.3932 4.55886 57.1244 4.55886ZM63.9017 6.17996H63.9178C65.561 8.84831 67.2043 11.2071 68.863 13.58H70.1284V3.26187H68.7319V10.6166H68.7027C67.0741 7.96388 65.4299 5.62067 63.7716 3.26187H62.5063V13.58H63.9017V6.17996ZM72.9927 10.7644H76.063L76.863 13.58H78.8118L75.5686 3.26187H74.1138L70.5927 13.58H72.1073L72.9927 10.7644ZM74.6238 5.29504H74.6525C75.059 6.88851 75.4228 8.13976 75.8022 9.49604H73.444C73.8525 8.13976 74.2585 6.88851 74.6238 5.29504ZM84.4992 12.1935H81.0525V3.26187H79.3208V13.58H84.4997V12.1935H84.4992ZM31.8736 25.381C31.5093 25.5729 31.1173 25.6322 30.652 25.6322C29.154 25.6322 27.6992 24.187 27.6992 21.7408C27.6992 19.3976 28.9646 17.9081 30.8269 17.9081C31.4962 17.9081 32.2233 18.1584 32.6887 18.4528L33.2555 17.2302C32.6741 16.787 31.7284 16.4337 30.7826 16.4337C27.7284 16.4337 25.8369 18.8955 25.8369 21.7106C25.8369 24.7473 27.7284 27.1061 30.7238 27.1061C31.7133 27.1061 32.6882 26.8423 33.6198 26.4719V22.2111H31.8736V25.381ZM36.9495 22.2121H39.8012V20.8272H36.9495V17.9971H39.8595V16.6116H35.2048V26.9297H40.3831V25.5428H36.9495V22.2121ZM45.2419 16.4342C42.754 16.4342 40.9218 18.7337 40.9218 21.6232C40.9218 24.7036 42.5796 27.1066 45.2419 27.1066C47.9037 27.1066 49.5615 24.7036 49.5615 21.6232C49.5615 18.7337 47.7289 16.4342 45.2419 16.4342ZM45.2419 25.6322C43.4228 25.6322 42.7831 23.5981 42.7831 21.6227C42.7831 19.7207 43.5103 17.9076 45.2419 17.9076C46.9726 17.9076 47.6997 19.7202 47.6997 21.6227C47.6997 23.5981 47.0605 25.6322 45.2419 25.6322ZM56.1952 25.381C55.8319 25.5729 55.4384 25.6322 54.9731 25.6322C53.4746 25.6322 52.0198 24.187 52.0198 21.7408C52.0198 19.3976 53.2857 17.9081 55.1485 17.9081C55.8173 17.9081 56.545 18.1584 57.0088 18.4528L57.5766 17.2302C56.9952 16.787 56.049 16.4337 55.1027 16.4337C52.0495 16.4337 50.1585 18.8955 50.1585 21.7106C50.1585 24.7473 52.0495 27.1061 55.0465 27.1061C56.0344 27.1061 57.0088 26.8423 57.9409 26.4719V22.2111H56.1952V25.381ZM65.4178 19.5895C65.4178 17.5835 64.2098 16.6116 62.2615 16.6116H59.5409V26.9297H61.2862V23.0383H62.0716L63.7153 26.9297H65.7078L63.658 22.6543C64.7766 22.0503 65.4178 20.8272 65.4178 19.5895ZM62.0138 21.7111C61.8384 21.7262 61.4304 21.7413 61.2857 21.7558V17.9976H62.058C63.0892 17.9976 63.6706 18.6006 63.6706 19.6624C63.6706 21.0473 62.8429 21.6674 62.0138 21.7111ZM69.258 16.6116L65.7369 26.9297H67.249L68.1369 24.1136H71.2063L72.0083 26.9297H73.956L70.7118 16.6116H69.258ZM68.5892 22.8473C68.9962 21.49 69.4032 20.2373 69.7671 18.6458H69.7967C70.2033 20.2373 70.5671 21.49 70.946 22.8473H68.5892ZM86.7284 20.5764H83.1058V16.6116H81.3746V26.9297H83.1058V21.9614H86.7284V26.9297H88.4731V16.6398H86.7284V20.5764ZM90.1455 26.9287H91.8761V16.6116H90.1455V26.9287ZM97.9862 25.6322C96.2987 25.6322 94.8726 24.187 94.8726 21.7408C94.8726 19.3976 96.1686 17.9081 97.9424 17.9081C98.6118 17.9081 99.3103 18.2172 99.7324 18.4825L100.285 17.2307C99.6882 16.8177 98.8455 16.4342 97.9429 16.4342C94.9027 16.4342 93.0259 18.896 93.0259 21.7111C93.0259 24.7478 94.9173 27.1066 97.9148 27.1066C98.758 27.1066 99.6887 26.7674 100.212 26.3996L99.7329 25.1166C99.2816 25.4111 98.6555 25.6322 97.9862 25.6322ZM77.2284 16.6116H74.5098V26.9297H76.2555V23.0383H77.0399C79.1213 23.0383 80.3857 21.3272 80.3857 19.5895C80.3852 17.5835 79.1791 16.6116 77.2284 16.6116ZM76.9816 21.7111C76.8073 21.7247 76.3862 21.7388 76.255 21.7523V17.9971H77.0394C78.0585 17.9971 78.6404 18.6001 78.6404 19.6619C78.6399 21.0473 77.8108 21.6674 76.9816 21.7111Z" fill="#9CA0AC" stroke="#9CA0AC" stroke-width="2" mask="url(#path-2-inside-1_402_3532)"/>
</svg>
