<svg width="100" height="30" viewBox="0 0 100 30" fill="none" xmlns="http://www.w3.org/2000/svg">
<path d="M17.4628 27.3375H17.9628V26.8375V3.16417V2.66417H17.4628H2.94221H2.44221V3.16417V26.8375V27.3375H2.94221H17.4628ZM19.9156 29.322H0.5V0.677734H19.9156V29.322Z" fill="#9CA0AC" stroke="#9CA0AC"/>
<mask id="path-2-inside-1_402_216" fill="white">
<path d="M32.5819 10.5131H32.5532C30.9246 7.86037 29.2804 5.51715 27.6221 3.15836H26.3567V13.4764H27.7532V6.07645H27.7673C29.412 8.74479 31.0552 11.1036 32.714 13.4764H33.9794V3.15836H32.5819V10.5131ZM42.6628 13.4764L39.4186 3.15836H37.9648L34.4442 13.4764H35.9567L36.8447 10.6609H39.913L40.7135 13.4764H42.6628ZM37.2949 9.39253C37.7025 8.03625 38.11 6.78549 38.4733 5.19152H38.503C38.9105 6.78499 39.2738 8.03625 39.6522 9.39253H37.2949ZM44.306 13.4764H46.0517V4.54429H48.7286V3.15836H41.6301V4.54429H44.3065V13.4764H44.306ZM51.0261 3.15836H49.2954V13.4764H51.0261V3.15836ZM56.4095 13.6523C59.0718 13.6523 60.7301 11.2503 60.7301 8.16941C60.7301 5.28047 58.8964 2.98047 56.4095 2.98047C53.9216 2.98047 52.0879 5.28047 52.0879 8.16941C52.0879 11.2508 53.7462 13.6523 56.4095 13.6523ZM56.4095 4.45534C58.1407 4.45534 58.8673 6.26791 58.8673 8.16992C58.8673 10.1448 58.2281 12.179 56.4095 12.179C54.5909 12.179 53.9512 10.1453 53.9512 8.16992C53.9512 6.26791 54.6784 4.45534 56.4095 4.45534ZM63.1869 6.07645H63.203C64.8462 8.74479 66.4894 11.1036 68.1482 13.4764H69.4135V3.15836H68.0171V10.5131H67.9879C66.3593 7.86037 64.715 5.51715 63.0567 3.15836H61.7914V13.4764H63.1869V6.07645ZM72.2778 10.6609H75.3482L76.1482 13.4764H78.0969L74.8537 3.15836H73.399L69.8779 13.4764H71.3924L72.2778 10.6609ZM73.909 5.19152H73.9377C74.3442 6.78499 74.708 8.03625 75.0874 9.39253H72.7291C73.1377 8.03625 73.5437 6.78499 73.909 5.19152ZM83.7844 12.09H80.3376V3.15836H78.606V13.4764H83.7849V12.09H83.7844ZM31.1588 25.2775C30.7944 25.4694 30.4025 25.5287 29.9371 25.5287C28.4392 25.5287 26.9844 24.0835 26.9844 21.6373C26.9844 19.294 28.2497 17.8046 30.112 17.8046C30.7814 17.8046 31.5085 18.0548 31.9738 18.3493L32.5407 17.1267C31.9593 16.6835 31.0135 16.3302 30.0678 16.3302C27.0135 16.3302 25.1221 18.792 25.1221 21.6071C25.1221 24.6438 27.0135 27.0026 30.009 27.0026C30.9985 27.0026 31.9733 26.7388 32.905 26.3684V22.1076H31.1588V25.2775ZM36.2346 22.1086H39.0864V20.7237H36.2346V17.8935H39.1447V16.5081H34.4899V26.8262H39.6683V25.4393H36.2346V22.1086ZM44.5271 16.3307C42.0392 16.3307 40.207 18.6302 40.207 21.5197C40.207 24.6001 41.8648 27.0031 44.5271 27.0031C47.1889 27.0031 48.8467 24.6001 48.8467 21.5197C48.8467 18.6302 47.014 16.3307 44.5271 16.3307ZM44.5271 25.5287C42.708 25.5287 42.0683 23.4945 42.0683 21.5192C42.0683 19.6172 42.7954 17.8041 44.5271 17.8041C46.2577 17.8041 46.9849 19.6167 46.9849 21.5192C46.9849 23.4945 46.3457 25.5287 44.5271 25.5287ZM55.4804 25.2775C55.117 25.4694 54.7236 25.5287 54.2583 25.5287C52.7598 25.5287 51.305 24.0835 51.305 21.6373C51.305 19.294 52.5708 17.8046 54.4336 17.8046C55.1025 17.8046 55.8301 18.0548 56.2939 18.3493L56.8618 17.1267C56.2804 16.6835 55.3341 16.3302 54.3879 16.3302C51.3346 16.3302 49.4437 18.792 49.4437 21.6071C49.4437 24.6438 51.3346 27.0026 54.3316 27.0026C55.3196 27.0026 56.2939 26.7388 57.2261 26.3684V22.1076H55.4804V25.2775ZM64.703 19.486C64.703 17.48 63.4949 16.5081 61.5467 16.5081H58.8261V26.8262H60.5713V22.9347H61.3567L63.0005 26.8262H64.9929L62.9432 22.5508C64.0618 21.9468 64.703 20.7237 64.703 19.486ZM61.299 21.6076C61.1236 21.6227 60.7155 21.6378 60.5708 21.6523V17.894H61.3432C62.3743 17.894 62.9557 18.4971 62.9557 19.5589C62.9557 20.9438 62.1281 21.5639 61.299 21.6076ZM68.5432 16.5081L65.0221 26.8262H66.5341L67.4221 24.0101H70.4914L71.2934 26.8262H73.2412L69.997 16.5081H68.5432ZM67.8743 22.7438C68.2814 21.3865 68.6884 20.1337 69.0522 18.5423H69.0819C69.4884 20.1337 69.8522 21.3865 70.2311 22.7438H67.8743ZM86.0135 20.4729H82.3909V16.5081H80.6598V26.8262H82.3909V21.8579H86.0135V26.8262H87.7583V16.5362H86.0135V20.4729ZM89.4306 26.8252H91.1613V16.5081H89.4306V26.8252ZM97.2713 25.5287C95.5839 25.5287 94.1577 24.0835 94.1577 21.6373C94.1577 19.294 95.4537 17.8046 97.2276 17.8046C97.8969 17.8046 98.5954 18.1136 99.0175 18.379L99.5698 17.1272C98.9733 16.7141 98.1306 16.3307 97.2281 16.3307C94.1879 16.3307 92.311 18.7925 92.311 21.6076C92.311 24.6443 94.2025 27.0031 97.2 27.0031C98.0432 27.0031 98.9738 26.6639 99.4975 26.296L99.0181 25.0131C98.5668 25.3076 97.9407 25.5287 97.2713 25.5287ZM76.5135 16.5081H73.7949V26.8262H75.5407V22.9347H76.3251C78.4065 22.9347 79.6708 21.2237 79.6708 19.486C79.6703 17.48 78.4643 16.5081 76.5135 16.5081ZM76.2668 21.6076C76.0924 21.6212 75.6713 21.6352 75.5402 21.6488V17.8935H76.3246C77.3437 17.8935 77.9256 18.4966 77.9256 19.5584C77.9251 20.9438 77.0959 21.5639 76.2668 21.6076Z"/>
</mask>
<path d="M32.5819 10.5131H32.5532C30.9246 7.86037 29.2804 5.51715 27.6221 3.15836H26.3567V13.4764H27.7532V6.07645H27.7673C29.412 8.74479 31.0552 11.1036 32.714 13.4764H33.9794V3.15836H32.5819V10.5131ZM42.6628 13.4764L39.4186 3.15836H37.9648L34.4442 13.4764H35.9567L36.8447 10.6609H39.913L40.7135 13.4764H42.6628ZM37.2949 9.39253C37.7025 8.03625 38.11 6.78549 38.4733 5.19152H38.503C38.9105 6.78499 39.2738 8.03625 39.6522 9.39253H37.2949ZM44.306 13.4764H46.0517V4.54429H48.7286V3.15836H41.6301V4.54429H44.3065V13.4764H44.306ZM51.0261 3.15836H49.2954V13.4764H51.0261V3.15836ZM56.4095 13.6523C59.0718 13.6523 60.7301 11.2503 60.7301 8.16941C60.7301 5.28047 58.8964 2.98047 56.4095 2.98047C53.9216 2.98047 52.0879 5.28047 52.0879 8.16941C52.0879 11.2508 53.7462 13.6523 56.4095 13.6523ZM56.4095 4.45534C58.1407 4.45534 58.8673 6.26791 58.8673 8.16992C58.8673 10.1448 58.2281 12.179 56.4095 12.179C54.5909 12.179 53.9512 10.1453 53.9512 8.16992C53.9512 6.26791 54.6784 4.45534 56.4095 4.45534ZM63.1869 6.07645H63.203C64.8462 8.74479 66.4894 11.1036 68.1482 13.4764H69.4135V3.15836H68.0171V10.5131H67.9879C66.3593 7.86037 64.715 5.51715 63.0567 3.15836H61.7914V13.4764H63.1869V6.07645ZM72.2778 10.6609H75.3482L76.1482 13.4764H78.0969L74.8537 3.15836H73.399L69.8779 13.4764H71.3924L72.2778 10.6609ZM73.909 5.19152H73.9377C74.3442 6.78499 74.708 8.03625 75.0874 9.39253H72.7291C73.1377 8.03625 73.5437 6.78499 73.909 5.19152ZM83.7844 12.09H80.3376V3.15836H78.606V13.4764H83.7849V12.09H83.7844ZM31.1588 25.2775C30.7944 25.4694 30.4025 25.5287 29.9371 25.5287C28.4392 25.5287 26.9844 24.0835 26.9844 21.6373C26.9844 19.294 28.2497 17.8046 30.112 17.8046C30.7814 17.8046 31.5085 18.0548 31.9738 18.3493L32.5407 17.1267C31.9593 16.6835 31.0135 16.3302 30.0678 16.3302C27.0135 16.3302 25.1221 18.792 25.1221 21.6071C25.1221 24.6438 27.0135 27.0026 30.009 27.0026C30.9985 27.0026 31.9733 26.7388 32.905 26.3684V22.1076H31.1588V25.2775ZM36.2346 22.1086H39.0864V20.7237H36.2346V17.8935H39.1447V16.5081H34.4899V26.8262H39.6683V25.4393H36.2346V22.1086ZM44.5271 16.3307C42.0392 16.3307 40.207 18.6302 40.207 21.5197C40.207 24.6001 41.8648 27.0031 44.5271 27.0031C47.1889 27.0031 48.8467 24.6001 48.8467 21.5197C48.8467 18.6302 47.014 16.3307 44.5271 16.3307ZM44.5271 25.5287C42.708 25.5287 42.0683 23.4945 42.0683 21.5192C42.0683 19.6172 42.7954 17.8041 44.5271 17.8041C46.2577 17.8041 46.9849 19.6167 46.9849 21.5192C46.9849 23.4945 46.3457 25.5287 44.5271 25.5287ZM55.4804 25.2775C55.117 25.4694 54.7236 25.5287 54.2583 25.5287C52.7598 25.5287 51.305 24.0835 51.305 21.6373C51.305 19.294 52.5708 17.8046 54.4336 17.8046C55.1025 17.8046 55.8301 18.0548 56.2939 18.3493L56.8618 17.1267C56.2804 16.6835 55.3341 16.3302 54.3879 16.3302C51.3346 16.3302 49.4437 18.792 49.4437 21.6071C49.4437 24.6438 51.3346 27.0026 54.3316 27.0026C55.3196 27.0026 56.2939 26.7388 57.2261 26.3684V22.1076H55.4804V25.2775ZM64.703 19.486C64.703 17.48 63.4949 16.5081 61.5467 16.5081H58.8261V26.8262H60.5713V22.9347H61.3567L63.0005 26.8262H64.9929L62.9432 22.5508C64.0618 21.9468 64.703 20.7237 64.703 19.486ZM61.299 21.6076C61.1236 21.6227 60.7155 21.6378 60.5708 21.6523V17.894H61.3432C62.3743 17.894 62.9557 18.4971 62.9557 19.5589C62.9557 20.9438 62.1281 21.5639 61.299 21.6076ZM68.5432 16.5081L65.0221 26.8262H66.5341L67.4221 24.0101H70.4914L71.2934 26.8262H73.2412L69.997 16.5081H68.5432ZM67.8743 22.7438C68.2814 21.3865 68.6884 20.1337 69.0522 18.5423H69.0819C69.4884 20.1337 69.8522 21.3865 70.2311 22.7438H67.8743ZM86.0135 20.4729H82.3909V16.5081H80.6598V26.8262H82.3909V21.8579H86.0135V26.8262H87.7583V16.5362H86.0135V20.4729ZM89.4306 26.8252H91.1613V16.5081H89.4306V26.8252ZM97.2713 25.5287C95.5839 25.5287 94.1577 24.0835 94.1577 21.6373C94.1577 19.294 95.4537 17.8046 97.2276 17.8046C97.8969 17.8046 98.5954 18.1136 99.0175 18.379L99.5698 17.1272C98.9733 16.7141 98.1306 16.3307 97.2281 16.3307C94.1879 16.3307 92.311 18.7925 92.311 21.6076C92.311 24.6443 94.2025 27.0031 97.2 27.0031C98.0432 27.0031 98.9738 26.6639 99.4975 26.296L99.0181 25.0131C98.5668 25.3076 97.9407 25.5287 97.2713 25.5287ZM76.5135 16.5081H73.7949V26.8262H75.5407V22.9347H76.3251C78.4065 22.9347 79.6708 21.2237 79.6708 19.486C79.6703 17.48 78.4643 16.5081 76.5135 16.5081ZM76.2668 21.6076C76.0924 21.6212 75.6713 21.6352 75.5402 21.6488V17.8935H76.3246C77.3437 17.8935 77.9256 18.4966 77.9256 19.5584C77.9251 20.9438 77.0959 21.5639 76.2668 21.6076Z" fill="#9CA0AC" stroke="#9CA0AC" stroke-width="2" mask="url(#path-2-inside-1_402_216)"/>
</svg>
