<svg width="71" height="38" viewBox="0 0 71 38" fill="none" xmlns="http://www.w3.org/2000/svg">
<path d="M21.5901 0.913276H16.9336L9.86525 19.7605H14.2091L17.3304 11.4063L17.4593 11.434L16.9147 19.7605H21.6288L28.6971 0.913276H24.3532L21.1725 9.38251L21.0435 9.35477L21.5901 0.913276Z" fill="#9CA0AC" stroke="#9CA0AC"/>
<mask id="path-2-inside-1_402_3569" fill="white">
<path d="M22.2573 19.8271L29.3757 0.84661H33.862L26.7436 19.8271H22.2573Z"/>
</mask>
<path d="M22.2573 19.8271L29.3757 0.84661H33.862L26.7436 19.8271H22.2573Z" fill="#9CA0AC"/>
<path d="M29.3757 0.84661L29.2509 0.79979L29.2833 0.713276H29.3757V0.84661ZM33.862 0.84661V0.713276H34.0544L33.9869 0.89343L33.862 0.84661ZM26.7436 19.8271L26.8685 19.874L26.836 19.9605H26.7436V19.8271ZM22.1325 19.7803L29.2509 0.79979L29.5006 0.89343L22.3822 19.874L22.1325 19.7803ZM29.3757 0.713276H33.862V0.979943H29.3757V0.713276ZM33.9869 0.89343L26.8685 19.874L26.6188 19.7803L33.7372 0.79979L33.9869 0.89343ZM26.7436 19.9605H22.2573V19.6938H26.7436V19.9605Z" fill="#9CA0AC" mask="url(#path-2-inside-1_402_3569)"/>
<path d="M8.95843 13.7349C6.51447 18.895 7.05085 22.4783 9.03082 24.5679C11.0666 26.7164 14.6041 27.2577 17.8973 26.3333C17.8973 26.3333 17.8973 26.3333 17.8974 26.3333L17.8991 26.3328L17.9062 26.3309L17.9342 26.3233L18.045 26.2933L18.4772 26.1762L20.1177 25.7316L25.9749 24.1443C30.8232 22.8305 37.2901 21.078 43.7642 19.3238C56.7132 15.8151 69.6892 12.2998 69.8045 12.271C69.9438 12.2361 70.0481 12.2289 70.1188 12.2378C70.1928 12.2472 70.2124 12.2711 70.2161 12.2796C70.219 12.2863 70.2235 12.312 70.182 12.3617C70.1425 12.409 70.0708 12.4648 69.9614 12.5197L69.9608 12.5199L69.9598 12.5205M8.95843 13.7349L17.9944 35.0117C22.3081 33.2861 69.9896 12.5801 69.9896 12.5801L69.9598 12.5205M8.95843 13.7349C5.94862 17.3205 3.07024 21.434 1.52387 25.2137C-0.0831027 29.1416 -0.240966 32.6783 2.33585 34.9037L2.29227 34.9541L2.33585 34.9037C4.84886 37.074 7.67564 37.5178 10.4161 37.203C13.1123 36.8933 15.7201 35.8499 17.858 34.9945C17.8954 34.9795 17.9326 34.9647 17.9696 34.9498C20.1254 34.0875 33.1228 28.4802 45.5832 23.0876C51.8129 20.3915 57.9079 17.7494 62.4454 15.7812C64.7142 14.7971 66.5936 13.9816 67.9058 13.412C68.5619 13.1273 69.0762 12.904 69.4265 12.7519L69.8261 12.5784L69.9284 12.534L69.9543 12.5227L69.9598 12.5205" fill="#9CA0AC" stroke="#9CA0AC"/>
<path d="M39.7631 18.5852L39.634 18.5637L39.3465 8.67086L39.3457 8.64394L39.3639 8.62403L46.147 1.17661L46.2587 1.24488L39.7631 18.5852ZM48.9685 19.7308L50.2311 16.2127H45.0918H44.9957L45.0294 16.1227L46.7489 11.5214L46.7651 11.478H46.8114H51.079L52.3561 8.07407H48.1385H48.0428L48.076 7.98427L49.5549 3.98685L49.571 3.94331H49.6174H54.1154L55.2701 0.913276H46.3771H46.3367H41.7093L37.0285 6.58322L36.9148 6.51704L39.0503 0.913276H34.6496L27.6384 19.7605H31.9828L34.9809 11.8661L35.1098 11.888L35.3147 19.7603L48.9685 19.7308Z" fill="#9CA0AC" stroke="#9CA0AC"/>
</svg>
