<svg width="71" height="38" viewBox="0 0 71 38" fill="none" xmlns="http://www.w3.org/2000/svg">
<path d="M21.5906 0.913276H16.9341L9.86573 19.7605H14.2096L17.3309 11.4063L17.4598 11.434L16.9152 19.7605H21.6293L28.6976 0.913276H24.3537L21.173 9.38251L21.044 9.35477L21.5906 0.913276Z" fill="#9CA0AC" stroke="#9CA0AC"/>
<mask id="path-2-inside-1_402_3624" fill="white">
<path d="M22.2578 19.8271L29.3762 0.84661H33.8625L26.7441 19.8271H22.2578Z"/>
</mask>
<path d="M22.2578 19.8271L29.3762 0.84661H33.8625L26.7441 19.8271H22.2578Z" fill="#9CA0AC"/>
<path d="M29.3762 0.84661L29.2514 0.79979L29.2838 0.713276H29.3762V0.84661ZM33.8625 0.84661V0.713276H34.0549L33.9874 0.89343L33.8625 0.84661ZM26.7441 19.8271L26.869 19.874L26.8365 19.9605H26.7441V19.8271ZM22.133 19.7803L29.2514 0.79979L29.501 0.89343L22.3827 19.874L22.133 19.7803ZM29.3762 0.713276H33.8625V0.979943H29.3762V0.713276ZM33.9874 0.89343L26.869 19.874L26.6193 19.7803L33.7377 0.79979L33.9874 0.89343ZM26.7441 19.9605H22.2578V19.6938H26.7441V19.9605Z" fill="#9CA0AC" mask="url(#path-2-inside-1_402_3624)"/>
<path d="M8.95892 13.7349C6.51495 18.895 7.05133 22.4783 9.03131 24.5679C11.0671 26.7164 14.6046 27.2577 17.8978 26.3333C17.8978 26.3333 17.8978 26.3333 17.8978 26.3333L17.8996 26.3328L17.9067 26.3309L17.9347 26.3233L18.0455 26.2933L18.4777 26.1762L20.1182 25.7316L25.9754 24.1443C30.8237 22.8305 37.2906 21.078 43.7647 19.3238C56.7137 15.8151 69.6897 12.2998 69.805 12.271C69.9443 12.2361 70.0486 12.2289 70.1193 12.2378C70.1933 12.2472 70.2129 12.2711 70.2166 12.2796C70.2195 12.2863 70.224 12.312 70.1825 12.3617C70.143 12.409 70.0713 12.4648 69.9619 12.5197L69.9613 12.5199L69.9602 12.5205M8.95892 13.7349L17.9949 35.0117C22.3086 33.2861 69.9901 12.5801 69.9901 12.5801L69.9602 12.5205M8.95892 13.7349C5.9491 17.3205 3.07073 21.434 1.52435 25.2137C-0.0826144 29.1416 -0.240477 32.6783 2.33634 34.9037L2.29276 34.9541L2.33634 34.9037C4.84935 37.074 7.67613 37.5178 10.4166 37.203C13.1127 36.8933 15.7206 35.8499 17.8585 34.9945C17.8959 34.9795 17.9331 34.9647 17.9701 34.9498C20.1259 34.0875 33.1233 28.4802 45.5836 23.0876C51.8134 20.3915 57.9084 17.7494 62.4459 15.7812C64.7147 14.7971 66.5941 13.9816 67.9063 13.412C68.5624 13.1273 69.0767 12.904 69.427 12.7519L69.8266 12.5784L69.9289 12.534L69.9548 12.5227L69.9602 12.5205" fill="#9CA0AC" stroke="#9CA0AC"/>
<path d="M39.7635 18.5852L39.6345 18.5637L39.347 8.67086L39.3462 8.64394L39.3643 8.62403L46.1474 1.17661L46.2592 1.24488L39.7635 18.5852ZM48.969 19.7308L50.2316 16.2127H45.0923H44.9962L45.0299 16.1227L46.7494 11.5214L46.7656 11.478H46.8119H51.0794L52.3565 8.07407H48.139H48.0433L48.0765 7.98427L49.5554 3.98685L49.5715 3.94331H49.6179H54.1158L55.2705 0.913276H46.3776H46.3372H41.7098L37.029 6.58322L36.9152 6.51704L39.0508 0.913276H34.6501L27.6389 19.7605H31.9833L34.9814 11.8661L35.1103 11.888L35.3152 19.7603L48.969 19.7308Z" fill="#9CA0AC" stroke="#9CA0AC"/>
</svg>
