<svg width="71" height="38" viewBox="0 0 71 38" fill="none" xmlns="http://www.w3.org/2000/svg">
<path d="M22.0203 0.913276H17.3637L10.2954 19.7605H14.6393L17.7605 11.4063L17.8895 11.434L17.3449 19.7605H22.059L29.1273 0.913276H24.7834L21.6027 9.38251L21.4737 9.35477L22.0203 0.913276Z" fill="#9CA0AC" stroke="#9CA0AC"/>
<mask id="path-2-inside-1_402_3639" fill="white">
<path d="M22.6875 19.8271L29.8059 0.84661H34.2922L27.1738 19.8271H22.6875Z"/>
</mask>
<path d="M22.6875 19.8271L29.8059 0.84661H34.2922L27.1738 19.8271H22.6875Z" fill="#9CA0AC"/>
<path d="M29.8059 0.84661L29.6811 0.79979L29.7135 0.713276H29.8059V0.84661ZM34.2922 0.84661V0.713276H34.4846L34.417 0.89343L34.2922 0.84661ZM27.1738 19.8271L27.2986 19.874L27.2662 19.9605H27.1738V19.8271ZM22.5627 19.7803L29.6811 0.79979L29.9307 0.89343L22.8123 19.874L22.5627 19.7803ZM29.8059 0.713276H34.2922V0.979943H29.8059V0.713276ZM34.417 0.89343L27.2986 19.874L27.049 19.7803L34.1674 0.79979L34.417 0.89343ZM27.1738 19.9605H22.6875V19.6938H27.1738V19.9605Z" fill="#9CA0AC" mask="url(#path-2-inside-1_402_3639)"/>
<path d="M9.38861 13.7349C6.94464 18.895 7.48102 22.4783 9.461 24.5679C11.4968 26.7164 15.0343 27.2577 18.3275 26.3333C18.3275 26.3333 18.3275 26.3333 18.3275 26.3333L18.3293 26.3328L18.3363 26.3309L18.3644 26.3233L18.4752 26.2933L18.9073 26.1762L20.5479 25.7316L26.4051 24.1443C31.2534 22.8305 37.7202 21.078 44.1944 19.3238C57.1434 15.8151 70.1194 12.2998 70.2346 12.271C70.3739 12.2361 70.4783 12.2289 70.5489 12.2378C70.623 12.2472 70.6426 12.2711 70.6463 12.2796C70.6492 12.2863 70.6537 12.312 70.6122 12.3617C70.5727 12.409 70.501 12.4648 70.3916 12.5197L70.391 12.5199L70.3899 12.5205M9.38861 13.7349L18.4246 35.0117C22.7383 33.2861 70.4197 12.5801 70.4197 12.5801L70.3899 12.5205M9.38861 13.7349C6.37879 17.3205 3.50042 21.434 1.95404 25.2137C0.347073 29.1416 0.18921 32.6783 2.76602 34.9037L2.72245 34.9541L2.76603 34.9037C5.27904 37.074 8.10582 37.5178 10.8463 37.203C13.5424 36.8933 16.1503 35.8499 18.2882 34.9945C18.3255 34.9795 18.3627 34.9647 18.3998 34.9498C20.5555 34.0875 33.553 28.4802 46.0133 23.0876C52.2431 20.3915 58.3381 17.7494 62.8756 15.7812C65.1443 14.7971 67.0238 13.9816 68.336 13.412C68.9921 13.1273 69.5064 12.904 69.8567 12.7519L70.2563 12.5784L70.3586 12.534L70.3845 12.5227L70.3899 12.5205" fill="#9CA0AC" stroke="#9CA0AC"/>
<path d="M40.1932 18.5852L40.0642 18.5637L39.7767 8.67086L39.7759 8.64394L39.794 8.62403L46.5771 1.17661L46.6889 1.24488L40.1932 18.5852ZM49.3986 19.7308L50.6613 16.2127H45.522H45.4259L45.4595 16.1227L47.1791 11.5214L47.1953 11.478H47.2416H51.5091L52.7862 8.07407H48.5687H48.4729L48.5062 7.98427L49.9851 3.98685L50.0012 3.94331H50.0476H54.5455L55.7002 0.913276H46.8072H46.7669H42.1395L37.4586 6.58322L37.3449 6.51704L39.4805 0.913276H35.0798L28.0686 19.7605H32.413L35.411 11.8661L35.54 11.888L35.7449 19.7603L49.3986 19.7308Z" fill="#9CA0AC" stroke="#9CA0AC"/>
</svg>
