<svg width="131" height="38" viewBox="0 0 131 38" fill="none" xmlns="http://www.w3.org/2000/svg">
<path d="M28.5151 7.11667C28.4891 6.93441 28.3328 6.83025 28.2026 6.83025C28.0724 6.83025 25.4946 6.77817 25.4946 6.77817C25.4946 6.77817 23.3335 4.6951 23.1251 4.46075C22.9168 4.25244 22.5002 4.30452 22.344 4.3566C22.344 4.3566 21.9274 4.48679 21.2504 4.6951C21.1462 4.33056 20.964 3.88791 20.7296 3.41921C19.9745 1.96106 18.8288 1.17991 17.4748 1.17991C17.3706 1.17991 17.2925 1.17991 17.1884 1.20594C17.1363 1.15387 17.1103 1.10179 17.0582 1.07575C16.4593 0.45083 15.7042 0.138368 14.7928 0.164407C13.0483 0.216483 11.3037 1.49237 9.87157 3.73168C8.88211 5.32002 8.12699 7.29894 7.89265 8.83521C5.88769 9.46014 4.48161 9.90279 4.42953 9.90279C3.41403 10.2153 3.388 10.2413 3.2578 11.2047C3.20573 11.9338 0.549805 32.4781 0.549805 32.4781L22.8387 36.3318L32.499 33.9363C32.4729 33.9363 28.5411 7.29894 28.5151 7.11667ZM20.1307 5.05964C19.61 5.21587 19.0371 5.39814 18.4122 5.60644C18.4122 4.72114 18.282 3.47129 17.8914 2.42975C19.2194 2.63806 19.8703 4.14829 20.1307 5.05964ZM17.2405 5.94494C16.0687 6.30948 14.7928 6.70006 13.517 7.09064C13.8815 5.7106 14.5585 4.3566 15.3917 3.44525C15.7042 3.10675 16.1468 2.74221 16.6416 2.53391C17.1623 3.54941 17.2665 4.98152 17.2405 5.94494ZM14.8449 1.33614C15.2615 1.33614 15.6 1.41425 15.8865 1.62256C15.4178 1.85691 14.9491 2.22144 14.5325 2.69014C13.4128 3.88791 12.5535 5.73664 12.215 7.53329C11.1475 7.87179 10.1059 8.18425 9.16853 8.47067C9.79346 5.63248 12.163 1.41425 14.8449 1.33614Z" fill="#95BF47"/>
<path d="M28.2038 6.83027C28.0736 6.83027 25.4958 6.7782 25.4958 6.7782C25.4958 6.7782 23.3346 4.69512 23.1263 4.46077C23.0482 4.38266 22.944 4.33058 22.8398 4.33058V36.3318L32.5001 33.9363C32.5001 33.9363 28.5683 7.29897 28.5423 7.1167C28.4902 6.93443 28.334 6.83027 28.2038 6.83027Z" fill="#5E8E3E"/>
<path d="M17.4755 11.8035L16.3559 15.9957C16.3559 15.9957 15.106 15.4228 13.6218 15.527C11.4346 15.6572 11.4346 17.0372 11.4346 17.3757C11.5648 19.2505 16.4861 19.6671 16.7725 24.0676C16.9808 27.5307 14.9498 29.9002 11.9814 30.0825C8.44019 30.2647 6.4873 28.1817 6.4873 28.1817L7.24242 24.9789C7.24242 24.9789 9.22134 26.4631 10.7836 26.359C11.7991 26.3069 12.1897 25.4476 12.1376 24.8748C11.9814 22.4272 7.9715 22.5834 7.71111 18.5474C7.5028 15.1624 9.71607 11.7514 14.6113 11.4389C16.5121 11.3087 17.4755 11.8035 17.4755 11.8035Z" fill="white"/>
<path d="M45.571 20.734C44.4513 20.1352 43.8785 19.6144 43.8785 18.9114C43.8785 18.026 44.6856 17.4532 45.9355 17.4532C47.3936 17.4532 48.6956 18.0521 48.6956 18.0521L49.7111 14.9275C49.7111 14.9275 48.7737 14.1984 46.0136 14.1984C42.1599 14.1984 39.478 16.4117 39.478 19.5102C39.478 21.2809 40.7278 22.6088 42.3943 23.5722C43.7483 24.3274 44.217 24.8742 44.217 25.6814C44.217 26.5146 43.54 27.1916 42.2901 27.1916C40.4414 27.1916 38.6708 26.2282 38.6708 26.2282L37.5771 29.3528C37.5771 29.3528 39.1915 30.4464 41.9256 30.4464C45.8834 30.4464 48.7476 28.4935 48.7476 24.9783C48.7216 23.0775 47.2895 21.7235 45.571 20.734Z" fill="black"/>
<path d="M61.3491 14.1466C59.3963 14.1466 57.86 15.084 56.6883 16.49L56.6362 16.464L58.3287 7.61092H53.9282L49.6318 30.1602H54.0323L55.4905 22.4528C56.0633 19.5365 57.5736 17.7399 58.9796 17.7399C59.9691 17.7399 60.3597 18.4169 60.3597 19.3803C60.3597 19.9792 60.3076 20.7343 60.1774 21.3332L58.511 30.1602H62.9114L64.63 21.0468C64.8123 20.0833 64.9424 18.9376 64.9424 18.1565C64.9685 15.6568 63.6666 14.1466 61.3491 14.1466Z" fill="black"/>
<path d="M74.9432 14.1465C69.6314 14.1465 66.1162 18.9376 66.1162 24.2754C66.1162 27.6865 68.2253 30.4466 72.1832 30.4466C77.3909 30.4466 80.9061 25.7857 80.9061 20.3176C80.9321 17.1669 79.0834 14.1465 74.9432 14.1465ZM72.7821 27.0876C71.2718 27.0876 70.6469 25.8117 70.6469 24.1973C70.6469 21.6716 71.9488 17.5575 74.3444 17.5575C75.9067 17.5575 76.4274 18.9115 76.4274 20.2134C76.4274 22.9214 75.0995 27.0876 72.7821 27.0876Z" fill="black"/>
<path d="M92.2058 14.1465C89.2374 14.1465 87.545 16.7764 87.545 16.7764H87.4929L87.7533 14.4069H83.8475C83.6652 15.9952 83.3007 18.4428 82.9622 20.2655L79.8896 36.4094H84.2901L85.5139 29.8737H85.6181C85.6181 29.8737 86.5295 30.4466 88.1959 30.4466C93.3776 30.4466 96.7626 25.1347 96.7626 19.7708C96.7626 16.8024 95.4346 14.1465 92.2058 14.1465ZM87.9876 27.1397C86.8419 27.1397 86.1649 26.4887 86.1649 26.4887L86.894 22.3746C87.4148 19.6146 88.8469 17.7919 90.3831 17.7919C91.7371 17.7919 92.1538 19.0417 92.1538 20.2134C92.1538 23.0777 90.4613 27.1397 87.9876 27.1397Z" fill="black"/>
<path d="M103.063 7.81911C101.657 7.81911 100.537 8.93876 100.537 10.3709C100.537 11.6728 101.37 12.5841 102.62 12.5841H102.672C104.052 12.5841 105.224 11.6468 105.25 10.0324C105.25 8.75649 104.391 7.81911 103.063 7.81911Z" fill="black"/>
<path d="M96.8926 30.134H101.293L104.287 14.511H99.861L96.8926 30.134Z" fill="black"/>
<path d="M115.511 14.485H112.439L112.595 13.7559C112.855 12.2457 113.74 10.9177 115.225 10.9177C116.006 10.9177 116.631 11.152 116.631 11.152L117.49 7.68893C117.49 7.68893 116.735 7.29836 115.094 7.29836C113.532 7.29836 111.97 7.74101 110.772 8.75651C109.262 10.0324 108.559 11.8811 108.22 13.7559L108.09 14.485H106.033L105.382 17.8179H107.439L105.096 30.1601H109.496L111.84 17.8179H114.886L115.511 14.485Z" fill="black"/>
<path d="M126.135 14.511C126.135 14.511 123.375 21.4632 122.151 25.2648H122.099C122.021 24.041 121.006 14.511 121.006 14.511H116.371L119.027 28.8581C119.079 29.1706 119.053 29.3789 118.923 29.5872C118.402 30.5767 117.543 31.5401 116.527 32.2431C115.694 32.842 114.756 33.2326 114.027 33.493L115.251 37.2425C116.136 37.0603 118.011 36.3051 119.574 34.847C121.579 32.9722 123.453 30.0559 125.354 26.0981L130.744 14.511H126.135Z" fill="black"/>
</svg>
