<svg width="131" height="23" viewBox="0 0 131 23" fill="none" xmlns="http://www.w3.org/2000/svg">
<g clip-path="url(#clip0_402_1919)">
<path d="M47.9224 11.2557C47.9224 8.77847 46.1332 6.65906 43.4358 6.65906C40.7384 6.65906 38.8942 8.80599 38.8942 11.2557C38.8942 13.6779 40.6833 15.7973 43.3808 15.7973C44.5093 15.7973 45.3901 15.467 46.1883 14.8339L47.3719 15.9074L48.0324 15.1642L46.8489 14.2009C47.537 13.3751 47.9224 12.3292 47.9224 11.2557ZM46.1332 13.5403L44.5093 12.0814L43.8487 12.8246L45.4726 14.2284C44.9221 14.6137 44.234 14.889 43.4633 14.889C41.454 14.889 39.9952 13.265 39.9952 11.2282C39.9952 9.21886 41.454 7.56738 43.4633 7.56738C45.4726 7.56738 46.9315 9.19134 46.9315 11.2282C46.9315 12.1365 46.6562 12.9347 46.1332 13.5403ZM56.2899 11.9163C56.2899 13.8155 55.2715 14.8339 53.5925 14.8339C51.9134 14.8339 50.895 13.7605 50.895 11.8612V6.74163H49.8766V11.9163C49.8766 14.4486 51.3905 15.7422 53.5925 15.7422C55.7944 15.7422 57.3083 14.3935 57.3083 11.8062V6.74163H56.2899V11.9163ZM116.156 14.889C114.202 14.889 112.743 13.265 112.743 11.2282C112.743 9.21886 114.202 7.56738 116.156 7.56738C117.34 7.56738 118.166 8.06282 118.964 8.80599L119.624 8.06282C118.716 7.20955 117.78 6.65906 116.156 6.65906C113.569 6.65906 111.67 8.72342 111.67 11.2557C111.67 13.788 113.569 15.7973 116.101 15.7973C117.725 15.7973 118.744 15.1917 119.652 14.2284L118.991 13.6228C118.193 14.3935 117.395 14.889 116.156 14.889ZM122.459 14.7238V11.641H127.276V10.7327H122.459V7.705H127.854V6.79669H121.441V15.6872H127.909V14.7238H122.459ZM98.3478 6.8242H95.0448V15.6872H96.0632V12.5494H98.2101C100.109 12.5494 101.678 11.5309 101.678 9.63174C101.678 7.87015 100.385 6.8242 98.3478 6.8242ZM100.66 9.68679C100.66 10.8704 99.6965 11.641 98.2377 11.641H96.0357V7.76006H98.2927C99.6965 7.70501 100.66 8.39313 100.66 9.68679ZM34.4077 10.7327C32.4534 10.3474 31.9855 9.82441 31.9855 8.99867C31.9855 8.20045 32.7287 7.5949 33.8847 7.5949C34.793 7.5949 35.6188 7.87015 36.472 8.55827L37.0225 7.76006C36.1142 7.01689 35.2334 6.68658 33.9398 6.68658C32.2607 6.68658 31.0221 7.705 31.0221 9.10877C31.0221 10.5676 31.9855 11.2557 33.9948 11.6961C35.839 12.0814 36.3069 12.5494 36.3069 13.3751C36.3069 14.2834 35.5087 14.889 34.3526 14.889C33.114 14.889 32.2057 14.5036 31.3249 13.6504L30.7194 14.3935C31.7928 15.3569 32.9213 15.7973 34.3251 15.7973C36.0592 15.7973 37.3528 14.7789 37.3528 13.265C37.2703 11.8612 36.3619 11.2007 34.4077 10.7327ZM79.4933 11.641H84.3101V10.7327H79.4933V7.705H84.8881V6.79669H78.4749V15.6872H84.9432V14.7238H79.4933V11.641ZM90.1729 10.7327C88.2187 10.3474 87.7507 9.82441 87.7507 8.99867C87.7507 8.20045 88.4939 7.5949 89.6499 7.5949C90.5583 7.5949 91.384 7.87015 92.2373 8.55827L92.7878 7.76006C91.8794 7.01689 90.9986 6.68658 89.705 6.68658C88.026 6.68658 86.7874 7.705 86.7874 9.10877C86.7874 10.5676 87.7507 11.2557 89.76 11.6961C91.6042 12.0814 92.0721 12.5494 92.0721 13.3751C92.0721 14.2834 91.2739 14.889 90.1179 14.889C88.8792 14.889 87.9709 14.5036 87.0901 13.6504L86.4846 14.3935C87.5581 15.3569 88.6866 15.7973 90.0903 15.7973C91.8244 15.7973 93.1181 14.7789 93.1181 13.265C93.0355 11.8612 92.1272 11.2007 90.1729 10.7327ZM62.6481 6.76916L58.602 15.6872H59.6204L60.6939 13.3201H65.5107L66.5291 15.6872H67.6026L63.5564 6.76916H62.6481ZM61.0792 12.4393L63.0885 7.95272L65.0978 12.4393H61.0792ZM105.89 6.76916L101.843 15.6872H102.862L103.935 13.3201H108.752L109.771 15.6872H110.844L106.798 6.76916H105.89ZM104.321 12.4393L106.33 7.95272L108.339 12.4393H104.321ZM76.3555 9.46659C76.3555 8.72342 76.0802 8.11787 75.6949 7.67748C75.1444 7.12698 74.2911 6.76916 73.1626 6.76916H69.3366V15.6321H70.3551V12.2191H72.8873L75.4747 15.6321H76.7133L74.0159 12.0264C75.337 11.7512 76.3555 10.9254 76.3555 9.46659ZM70.3275 11.3108V7.705H73.08C74.4838 7.705 75.337 8.36559 75.337 9.43906C75.337 10.5676 74.3737 11.2282 73.025 11.2282H70.3275V11.3108ZM6.60764 12.3292C6.99298 12.7145 7.6811 12.7145 8.1215 12.3292L14.81 5.64064C15.6633 4.78737 16.957 4.78737 17.7827 5.64064C18.1681 6.02599 18.8562 6.02599 19.2966 5.64064C19.6819 5.25529 19.6819 4.56717 19.2966 4.12678C17.6726 2.50282 14.9752 2.50282 13.3512 4.12678L6.60764 10.7878C6.16724 11.2557 6.16724 11.8612 6.60764 12.3292ZM16.9845 7.8151C17.3698 7.42975 17.3698 6.74163 16.9845 6.30124C16.5991 5.91589 15.911 5.91589 15.4706 6.30124L8.80962 13.0448C7.95635 13.8981 6.66268 13.8981 5.83694 13.0448C4.98367 12.1915 4.98367 10.8979 5.83694 10.0721L12.4154 3.49371C11.5621 2.64044 10.2684 2.64044 9.44269 3.49371L4.37813 8.55827C2.75417 10.1822 2.75417 12.8797 4.37813 14.5036C6.00209 16.1276 8.69952 16.1276 10.3235 14.5036L16.9845 7.8151ZM17.7827 8.55827L11.0391 15.3018C10.6538 15.6872 10.6538 16.3753 11.0391 16.8157C11.4245 17.2011 12.1126 17.2011 12.553 16.8157L19.2415 10.1272C20.0948 9.27391 21.3885 9.27391 22.2142 10.1272C23.0399 10.9804 23.0675 12.2741 22.2142 13.0999L15.6358 19.6232C16.489 20.4765 17.7827 20.4765 18.6084 19.6232L23.7281 14.5036C25.352 12.8797 25.352 10.1822 23.7281 8.55827C22.049 6.93431 19.4067 6.93431 17.7827 8.55827ZM21.4986 10.7878C21.1132 10.4024 20.4251 10.4024 19.9847 10.7878L13.2962 17.5314C12.4429 18.3846 11.1492 18.3846 10.3235 17.5314C9.93814 17.146 9.25002 17.146 8.80962 17.5314C8.42427 17.9167 8.42427 18.6048 8.80962 19.0452C10.4336 20.6692 13.131 20.6692 14.755 19.0452L21.4435 12.3567C21.8839 11.8612 21.8839 11.2557 21.4986 10.7878Z" fill="black"/>
</g>
<defs>
<clipPath id="clip0_402_1919">
<rect width="130.192" height="21.7446" fill="white" transform="translate(0.550781 0.54892)"/>
</clipPath>
</defs>
</svg>
