<svg width="51" height="42" viewBox="0 0 51 42" fill="none" xmlns="http://www.w3.org/2000/svg">
<path d="M35.3997 0.806152C29.605 0.893927 25.0394 5.89846 25.0394 11.6932V13.0979C14.6792 11.2542 9.58686 8.44461 3.96772 2.56214C0.6314 9.05922 4.31892 14.5027 8.35763 17.4879C5.63583 17.4879 3.3531 17.1367 1.59712 15.5564C1.42157 15.4686 1.24592 15.5564 1.3337 15.7321C2.82626 21.1756 7.91856 25.1265 11.8695 26.2679C8.26975 26.2679 5.89915 26.7946 3.353 25.2143C3.17745 25.1265 3.00181 25.2143 3.08958 25.3898C5.02111 30.7455 8.88427 32.4138 14.5034 32.4138C11.6938 34.5209 7.91856 36.6281 0.806852 36.8037C0.54343 36.8037 0.367881 37.1549 0.631303 37.3304C3.26523 39.5254 9.76241 41.1936 18.8934 41.1936C33.907 41.1936 46.111 27.8482 46.111 11.342V10.464C48.4816 9.58607 49.7985 7.47889 50.5009 5.37171C50.5009 5.28393 50.4131 5.19616 50.3253 5.19616L45.3207 6.95214C45.233 6.95214 45.1452 6.77659 45.233 6.68872C47.3403 5.02051 48.9207 2.91333 49.6231 0.893927C49.6231 0.893927 49.5353 0.806152 49.4474 0.806152C47.0768 1.77197 44.7941 2.73768 43.0381 3.26453C42.7747 3.3523 42.4235 3.3523 42.1602 3.17675C41.0188 2.56214 37.5946 0.806152 35.3997 0.806152Z" fill="#1DA1F2"/>
</svg>
