<svg width="102" height="27" viewBox="0 0 102 27" fill="none" xmlns="http://www.w3.org/2000/svg">
<path d="M33.0141 10.8559C33.0141 9.0452 31.2533 7.12208 28.2062 7.12208C24.7846 7.12208 21.0258 9.63213 20.4513 14.6397C19.8644 19.6973 23.0113 21.9451 26.1832 21.9451C29.3551 21.9451 31.016 20.7088 32.7143 19.0604C31.2533 17.2247 29.3676 18.0739 29.0055 18.2612C28.6059 18.461 28.0939 18.7357 27.0449 18.7357C25.8211 18.7357 24.5723 18.1863 24.5723 15.901C32.4146 15.1268 33.0141 12.6667 33.0141 10.8559ZM29.1303 11.1556C29.0804 11.7176 28.8556 12.6791 24.8845 13.2161C25.7212 10.244 27.3196 10.0192 28.0564 10.0192C28.7432 10.0192 29.1803 10.5562 29.1303 11.1556ZM15.8433 11.6427C15.8433 11.6427 14.1575 16.9375 14.0201 17.3746C13.9702 16.925 12.7339 7.42179 12.7339 7.42179C9.86167 7.42179 8.32567 9.46979 7.51397 11.6302C7.51397 11.6302 5.46597 16.9375 5.29114 17.3871C5.27865 16.975 4.97894 11.6926 4.97894 11.6926C4.80412 9.0452 2.38148 7.43427 0.420898 7.43427L2.79358 21.8327C5.80314 21.8202 7.42655 19.7847 8.27572 17.6243C8.27572 17.6243 10.0865 12.9414 10.1614 12.7291C10.1739 12.9289 11.4601 21.8327 11.4601 21.8327C14.4822 21.8327 16.1056 19.9221 16.9797 17.8366L21.2131 7.43427C18.2285 7.43427 16.655 9.46979 15.8433 11.6427ZM44.1032 7.0971C42.2425 7.0971 40.8189 8.10862 39.6201 9.59466V9.58218L40.694 0.928131C38.2215 0.928131 36.2109 3.07603 35.8238 6.27291L33.9506 21.7203C35.3742 21.7203 36.8853 21.3082 37.697 20.2592C38.4213 21.1958 39.5077 21.9451 41.1186 21.9451C45.2896 21.9451 48.1493 17.0998 48.1493 12.5543C48.1243 8.40832 46.1138 7.0971 44.1032 7.0971ZM43.7161 14.5273C43.279 17.0624 41.8679 18.7857 40.5067 18.7857C39.1331 18.7857 38.5461 18.1738 38.5461 18.1738C38.8084 15.951 38.9707 14.5898 39.4702 13.4159C39.9698 12.2421 41.1561 10.3689 42.3924 10.3689C43.6037 10.3689 44.1532 11.9798 43.7161 14.5273ZM58.5641 7.43427H55.6544L55.6669 7.28442C55.8667 5.38628 56.3163 4.38725 57.8023 4.22491C58.8138 4.12501 59.2634 3.60052 59.3758 3.02608C59.4632 2.57652 59.7379 1.01555 59.7379 1.01555C53.8937 0.978082 52.0579 3.50062 51.5834 7.34686L51.5709 7.43427H51.5085C50.5594 7.43427 49.5104 8.50822 49.3356 9.8694L49.2732 10.3689H51.2213L49.5854 23.8807L49.0858 26.3033C49.1483 26.3033 49.2232 26.3158 49.2857 26.3158C52.0205 26.2159 53.7688 24.0555 54.1559 20.9211L55.4296 10.3689H56.3413C57.2404 10.3689 58.2894 9.46979 58.4767 7.97125L58.5641 7.43427ZM73.6993 7.18452C70.3401 7.18452 67.1682 9.6571 66.1941 13.5408C65.2201 17.4245 66.6936 22.02 71.6388 22.02C76.5715 22.02 79.4187 17.2372 79.4187 13.2536C79.4187 9.29496 76.7338 7.18452 73.6993 7.18452ZM75.0605 14.4025C74.8856 16.1632 74.1114 18.8356 71.9885 18.8356C69.8531 18.8356 70.1528 15.7137 70.3651 14.2276C70.5898 12.6417 71.4765 10.3814 73.3871 10.3814C75.0979 10.3814 75.2603 12.4169 75.0605 14.4025ZM96.015 11.6427C96.015 11.6427 94.3291 16.9375 94.1918 17.3746C94.1418 16.925 92.9055 7.42179 92.9055 7.42179C90.0333 7.42179 88.4973 9.46979 87.6856 11.6302C87.6856 11.6302 85.6376 16.9375 85.4628 17.3871C85.4503 16.975 85.1506 11.6926 85.1506 11.6926C84.9758 9.0452 82.5531 7.43427 80.5926 7.43427L82.9528 21.8327C85.9623 21.8202 87.5857 19.7847 88.4349 17.6243C88.4349 17.6243 90.2456 12.9414 90.3081 12.7291C90.3206 12.9289 91.6068 21.8327 91.6068 21.8327C94.6289 21.8327 96.2523 19.9221 97.1264 17.8366L101.36 7.43427C98.3877 7.43427 96.8142 9.46979 96.015 11.6427ZM61.3114 1.01555L58.8638 20.7588L58.3643 23.1939C58.4267 23.1939 58.5016 23.2064 58.5641 23.2064C61.199 23.1689 63.0722 20.8587 63.4218 17.949L64.833 6.62257C65.2575 3.16345 63.1971 1.01555 61.3114 1.01555Z" fill="#4353FF"/>
</svg>
