<svg width="105" height="37" viewBox="0 0 105 37" fill="none" xmlns="http://www.w3.org/2000/svg">
<path d="M53.6047 14.0605C51.6189 14.0605 50.2555 15.6018 50.048 17.4987H57.191C56.9539 15.5721 55.7387 14.0605 53.6047 14.0605ZM71.1214 14.4755C68.7206 14.4755 67.5944 16.6984 67.5944 18.8917C67.5944 21.0554 68.6614 23.545 71.1214 23.545C73.4629 23.545 74.6188 21.1147 74.6188 19.0399C74.5595 16.9355 73.4333 14.4755 71.1214 14.4755ZM36.1177 14.0605C34.1318 14.0605 32.7684 15.6018 32.561 17.4987H39.704C39.4372 15.5721 38.222 14.0605 36.1177 14.0605ZM99.7231 7.74743C97.4705 7.74743 95.6626 9.0219 94.8327 11.1559L94.2695 12.6379L93.736 11.1559C92.9654 9.05154 91.0981 7.71779 88.8456 7.71779C88.5492 7.71779 88.2824 7.74745 87.986 7.80671V5.79126C87.986 2.73843 85.7927 0.485886 82.8881 0.485886C79.9835 0.485886 77.7902 2.76807 77.7902 5.79126V9.70364C76.1008 8.28097 74.026 7.53999 71.7735 7.53999C71.2696 7.53999 70.7657 7.56965 70.2915 7.65851V5.82093C70.2915 2.76811 68.1279 0.515525 65.2825 0.515525C62.4372 0.515525 60.2735 2.79775 60.2735 5.82093V10.1186C58.347 8.4588 55.9758 7.56963 53.3972 7.56963C50.3444 7.56963 47.5287 8.8441 45.5132 11.1559C45.1872 11.5116 44.8908 11.8969 44.6241 12.3415C44.3573 11.9562 44.0609 11.5709 43.7349 11.1856C41.6602 8.8441 38.8148 7.56963 35.7916 7.56963C33.5094 7.56963 31.3754 8.28096 29.5971 9.61472C28.7079 8.34024 27.2259 7.56963 25.418 7.56963C23.1061 7.56963 21.1499 9.14049 20.5275 11.4523C19.4309 7.95493 16.7041 7.56963 15.5481 7.56963C14.3922 7.56963 11.6654 7.95493 10.5688 11.4523C9.976 9.14049 8.04946 7.56963 5.67834 7.56963C2.83299 7.56963 0.550781 9.61473 0.550781 12.223C0.550781 13.3789 0.81753 14.2977 1.1732 15.3054L5.05592 26.3015C6.36003 29.9471 8.99791 30.4806 10.4799 30.4806C12.7621 30.4806 14.5701 29.2951 15.5185 27.2203C16.4373 29.3247 18.2453 30.5102 20.5571 30.5102C22.0391 30.5102 24.677 29.9767 25.9811 26.3015L26.4257 25.027C28.3226 28.4059 31.8496 30.5102 36.1473 30.5102C39.2594 30.5102 43.3792 29.1765 45.2761 26.7461C47.2916 29.0876 50.3148 30.5102 53.8122 30.5102C56.1833 30.5102 59.1769 29.7396 61.2812 28.2577C62.1704 29.5322 63.6227 30.3028 65.3121 30.3028C66.3199 30.3028 67.209 30.0657 67.95 29.6211C69.0763 30.1842 70.3211 30.4806 71.6253 30.4806C74.1742 30.4806 76.5453 29.5322 78.3533 27.7242C79.1832 29.4136 80.843 30.4806 82.8585 30.4806C85.0221 30.4806 86.8005 29.1765 87.5415 27.2796C87.5415 27.2796 86.8005 31.3994 86.8005 32.1701C86.8005 34.8672 89.0234 36.9123 91.9577 36.9123C94.0324 36.9123 95.8108 35.5785 96.6703 33.3556L104.169 14.7127C104.465 14.031 104.614 13.29 104.614 12.4601C104.673 9.674 102.094 7.74747 99.7231 7.74747V7.74743ZM27.2556 14.3273L23.3432 25.353C22.869 26.6868 22.0687 27.6649 20.5868 27.6649C19.1938 27.6649 18.3639 26.8943 17.9489 25.5605L15.6074 18.21H15.5778L13.2363 25.5605C12.8213 26.8943 11.9915 27.6649 10.5984 27.6649C9.08683 27.6649 8.31621 26.6572 7.84199 25.353L3.95927 14.3866C3.63324 13.4678 3.48504 12.875 3.48504 12.2229C3.48504 11.1856 4.43349 10.3853 5.76725 10.3853C6.89354 10.3853 7.66415 11.0966 7.9309 12.1933L10.5688 20.9368H10.6281L13.2956 12.4008C13.6513 11.1559 14.3033 10.3853 15.6074 10.3853C16.9115 10.3853 17.5636 11.1263 17.9193 12.4008L20.5868 20.9368H20.6461L23.2839 12.1933C23.5211 11.0966 24.351 10.3853 25.4476 10.3853C26.7814 10.3853 27.7298 11.1856 27.7298 12.6082C27.7002 13.1121 27.4631 13.616 27.2556 14.3273H27.2556ZM36.5919 23.8118C38.9037 23.8118 40.4746 21.9742 41.6898 21.9742C42.6383 21.9742 43.5274 22.9226 43.5274 23.9007C43.5274 25.8272 39.5558 27.6945 36.2066 27.6945C31.1383 27.6945 27.8187 24.0193 27.8187 19.0992C27.8187 14.5644 31.1383 10.4446 35.8509 10.4446C40.7117 10.4446 43.9127 14.8608 43.9127 18.625C43.9127 19.9587 43.32 20.6404 41.9566 20.6404H32.3831C32.6795 22.7744 34.5171 23.8118 36.5919 23.8118ZM59.5918 20.5811H50.0184C50.3148 22.7744 52.1524 23.7821 54.2568 23.7821C56.5686 23.7821 58.1395 21.9445 59.3547 21.9445C60.3031 21.9445 61.1923 22.893 61.1923 23.8711C61.1923 25.7976 57.2207 27.6649 53.8715 27.6649C48.8032 27.6649 45.4836 23.9896 45.4836 19.0696C45.4836 14.5348 48.8032 10.4149 53.5158 10.4149C58.3766 10.4149 61.5776 14.8312 61.5776 18.5953C61.5479 19.9291 60.9256 20.5811 59.5918 20.5811ZM71.6845 27.6945C70.1433 27.6945 68.4242 27.0128 67.5944 25.6494C67.3276 26.835 66.5866 27.5167 65.3714 27.5167C64.0673 27.5167 63.1485 26.509 63.1485 25.027V5.85054C63.1485 4.33894 64.008 3.36085 65.3418 3.36085C66.6459 3.36085 67.5351 4.36858 67.5351 5.85054V11.9562C68.8096 10.9188 70.2619 10.3853 71.8327 10.3853C76.6343 10.3853 79.0943 14.8904 79.0943 19.277C79.0646 23.4561 76.1897 27.6945 71.6845 27.6945ZM85.2 25.1752C85.2 26.6868 84.2515 27.6649 82.9474 27.6649C81.6433 27.6649 80.6948 26.6572 80.6948 25.1752V5.79126C80.6948 4.27967 81.6433 3.30157 82.9474 3.30157C84.2515 3.30157 85.2 4.30931 85.2 5.79126V25.1752ZM101.65 13.6456L94.1806 32.3479C93.8249 33.2667 93.1136 34.1262 92.0762 34.1262C90.535 34.1262 89.7347 33.1777 89.7347 32.1997C89.7347 31.7847 89.8533 31.3105 90.0015 30.8955L91.9577 26.0347L87.008 13.6752C86.8894 13.3492 86.8005 12.9935 86.8005 12.5193C86.8005 11.393 87.986 10.5928 88.9049 10.5928C90.0015 10.5928 90.7721 11.1856 91.1278 12.1933L94.2102 20.6108L97.5298 12.1933C97.8855 11.1856 98.6857 10.5928 99.7527 10.5928C100.672 10.5928 101.857 11.393 101.857 12.5193C101.887 12.9639 101.798 13.2899 101.65 13.6456Z" fill="#0099D6"/>
</svg>
