<svg width="131" height="30" viewBox="0 0 131 30" fill="none" xmlns="http://www.w3.org/2000/svg">
<path d="M76.0604 11.993H70.9354V12.5371C72.5384 12.5371 72.7962 12.8809 72.7962 14.9154V18.583C72.7962 20.6172 72.5387 20.9898 70.9354 20.9898C69.7046 20.818 68.874 20.1588 67.7288 18.8981L66.4119 17.4657C68.1869 17.1501 69.1315 16.033 69.1315 14.772C69.1315 13.1965 67.7862 11.993 65.2665 11.993H60.2275V12.5371C61.8306 12.5371 62.0883 12.8809 62.0883 14.9154V18.583C62.0883 20.6172 61.8306 20.9898 60.2275 20.9898V21.5341H65.9249V20.9898C64.3218 20.9898 64.0641 20.6172 64.0641 18.583V17.5518H64.5506L67.7288 21.5341H76.0604C80.1544 21.5341 81.9296 19.3568 81.9296 16.7491C81.9296 14.1418 80.1547 11.993 76.0604 11.993ZM64.0643 16.6629V12.8527H65.238C66.5262 12.8527 67.099 13.7408 67.099 14.7723C67.099 15.7753 66.5262 16.6632 65.238 16.6632H64.0643V16.6629ZM76.1464 20.6459H75.9458C74.9154 20.6459 74.7722 20.3882 74.7722 19.0701V12.8527C74.7722 12.8527 76.0319 12.8527 76.1464 12.8527C79.124 12.8527 79.6677 15.03 79.6677 16.7206C79.6677 18.4682 79.1237 20.6459 76.1464 20.6459Z" fill="#00749A"/>
<path d="M44.2815 17.7235L46.257 11.8781C46.8298 10.1877 46.5721 9.70085 44.7398 9.70085V9.12757H50.1223V9.70085C48.3186 9.70085 47.8892 10.1306 47.1734 12.2222L43.9092 22.0212H43.5372L40.6165 13.0529L37.6392 22.0212H37.267L34.0891 12.2222C33.402 10.1306 32.9439 9.70085 31.2832 9.70085V9.12757H37.6392V9.70085C35.9499 9.70085 35.4915 10.1018 36.0931 11.8781L38.0113 17.7235L40.903 9.12757H41.4471L44.2815 17.7235Z" fill="#00749A"/>
<path d="M54.0151 21.9064C50.8659 21.9064 48.2891 19.5858 48.2891 16.7489C48.2891 13.9411 50.8661 11.6201 54.0151 11.6201C57.1646 11.6201 59.7412 13.9411 59.7412 16.7489C59.7412 19.5858 57.1646 21.9064 54.0151 21.9064ZM54.0151 12.5089C51.3814 12.5089 50.465 14.8867 50.465 16.7491C50.465 18.6405 51.3814 20.9898 54.0151 20.9898C56.678 20.9898 57.5942 18.6405 57.5942 16.7491C57.5942 14.8867 56.678 12.5089 54.0151 12.5089Z" fill="#00749A"/>
<path d="M88.4783 20.8701V21.4432H81.9219V20.8701C83.8403 20.8701 84.1838 20.3832 84.1838 17.5176V12.9336C84.1838 10.0679 83.8403 9.60973 81.9219 9.60973V9.03645H87.8483C90.7971 9.03645 92.4296 10.5551 92.4296 12.5897C92.4296 14.5668 90.7971 16.1138 87.8483 16.1138H86.2163V17.5173C86.2163 20.3832 86.5599 20.8701 88.4783 20.8701ZM87.8483 10.0679H86.2163V15.0537H87.8483C89.4518 15.0537 90.1961 13.9363 90.1961 12.5897C90.1961 11.2145 89.4518 10.0679 87.8483 10.0679Z" fill="#464342"/>
<path d="M112.621 18.8409L112.477 19.3565C112.22 20.3021 111.905 20.6459 109.872 20.6459H109.471C107.982 20.6459 107.725 20.3021 107.725 18.2679V16.95C109.958 16.95 110.13 17.1503 110.13 18.6404H110.674V14.371H110.13C110.13 15.8609 109.958 16.0614 107.725 16.0614V12.8527H109.299C111.332 12.8527 111.647 13.1965 111.905 14.1421L112.048 14.6861H112.506L112.306 11.993H103.888V12.5371C105.491 12.5371 105.749 12.8809 105.749 14.9154V18.583C105.749 20.444 105.53 20.9128 104.266 20.9796C103.065 20.796 102.24 20.1402 101.111 18.8981L99.7942 17.4657C101.569 17.1501 102.514 16.033 102.514 14.772C102.514 13.1965 101.169 11.993 98.6493 11.993H93.6104V12.5371C95.2134 12.5371 95.4711 12.8809 95.4711 14.9154V18.583C95.4711 20.6172 95.2136 20.9898 93.6104 20.9898V21.5341H99.3079V20.9898C97.7049 20.9898 97.4469 20.6172 97.4469 18.583V17.5518H97.9337L101.112 21.5341H112.879L113.05 18.8412H112.621V18.8409ZM97.4467 16.6629V12.8527H98.6203C99.9088 12.8527 100.482 13.7408 100.482 14.7723C100.482 15.7753 99.9088 16.6632 98.6203 16.6632H97.4467V16.6629Z" fill="#464342"/>
<path d="M118.434 21.9062C117.289 21.9062 116.287 21.3047 115.857 20.9319C115.714 21.0755 115.457 21.5052 115.4 21.9062H114.855V17.9526H115.428C115.657 19.8435 116.974 20.9609 118.663 20.9609C119.58 20.9609 120.324 20.4453 120.324 19.5858C120.324 18.841 119.666 18.2677 118.492 17.7234L116.86 16.9499C115.714 16.4051 114.855 15.4595 114.855 14.1991C114.855 12.8238 116.144 11.6493 117.919 11.6493C118.864 11.6493 119.665 11.9931 120.152 12.3941C120.295 12.2795 120.439 11.9641 120.525 11.6201H121.069V15.0013H120.467C120.267 13.6545 119.522 12.5372 118.005 12.5372C117.204 12.5372 116.459 12.9956 116.459 13.7122C116.459 14.457 117.06 14.858 118.435 15.4885L120.009 16.262C121.383 16.9209 121.927 17.9816 121.927 18.841C121.927 20.6458 120.352 21.9062 118.434 21.9062Z" fill="#464342"/>
<path d="M127.252 21.9062C126.106 21.9062 125.104 21.3047 124.675 20.9319C124.532 21.0755 124.274 21.5052 124.217 21.9062H123.673V17.9526H124.246C124.475 19.8435 125.792 20.9609 127.481 20.9609C128.397 20.9609 129.142 20.4453 129.142 19.5858C129.142 18.841 128.483 18.2677 127.309 17.7234L125.677 16.9499C124.532 16.4051 123.673 15.4595 123.673 14.1991C123.673 12.8238 124.961 11.6493 126.736 11.6493C127.681 11.6493 128.483 11.9931 128.97 12.3941C129.113 12.2795 129.256 11.9641 129.342 11.6201H129.886V15.0013H129.285C129.084 13.6545 128.34 12.5372 126.823 12.5372C126.021 12.5372 125.276 12.9956 125.276 13.7122C125.276 14.457 125.877 14.858 127.252 15.4885L128.826 16.262C130.201 16.9209 130.744 17.9816 130.744 18.841C130.744 20.6458 129.17 21.9062 127.252 21.9062Z" fill="#464342"/>
<path d="M2.65137 15.1377C2.65137 20.1568 5.56599 24.4942 9.79241 26.5497L3.74836 9.97729C3.04532 11.5543 2.65137 13.2994 2.65137 15.1377Z" fill="#464342"/>
<path d="M23.8746 14.4977C23.8746 12.9306 23.3121 11.8453 22.8297 11.0006C22.1874 9.95614 21.5854 9.07162 21.5854 8.02713C21.5854 6.86152 22.4687 5.7765 23.713 5.7765C23.7692 5.7765 23.8225 5.78349 23.8772 5.78663C21.623 3.71985 18.6196 2.45797 15.3209 2.45797C10.8944 2.45797 6.99996 4.7308 4.73438 8.17334C5.03165 8.18227 5.3118 8.18854 5.54976 8.18854C6.87507 8.18854 8.92657 8.02761 8.92657 8.02761C9.60959 7.98732 9.69012 8.99127 9.00782 9.0721C9.00782 9.0721 8.32141 9.15293 7.55762 9.19298L12.1717 22.9277L14.9446 14.6053L12.9705 9.1925C12.2882 9.15245 11.6418 9.07162 11.6418 9.07162C10.959 9.03157 11.0391 7.98684 11.7218 8.02713C11.7218 8.02713 13.8143 8.18806 15.0593 8.18806C16.3844 8.18806 18.4361 8.02713 18.4361 8.02713C19.1197 7.98684 19.1999 8.99079 18.5174 9.07162C18.5174 9.07162 17.8295 9.15245 17.0672 9.1925L21.6461 22.8232L22.9099 18.5968C23.4577 16.8429 23.8746 15.5832 23.8746 14.4977Z" fill="#464342"/>
<path d="M15.5438 16.2469L11.7422 27.302C12.8773 27.6359 14.0777 27.8186 15.3215 27.8186C16.797 27.8186 18.212 27.5633 19.5291 27.0998C19.4951 27.0455 19.4643 26.9879 19.439 26.9251L15.5438 16.2469Z" fill="#464342"/>
<path d="M26.4388 9.05393C26.4933 9.45783 26.5242 9.8914 26.5242 10.3578C26.5242 11.6445 26.284 13.091 25.5608 14.8996L21.6904 26.098C25.4573 23.8997 27.991 19.8156 27.991 15.1377C27.9913 12.9332 27.4285 10.8601 26.4388 9.05393Z" fill="#464342"/>
<path d="M15.3209 0.357048C7.17685 0.357048 0.550781 6.98759 0.550781 15.1377C0.550781 23.2888 7.17685 29.9191 15.3209 29.9191C23.4646 29.9191 30.0916 23.2888 30.0916 15.1377C30.0914 6.98759 23.4646 0.357048 15.3209 0.357048ZM15.3209 29.2415C7.5503 29.2415 1.22802 22.9145 1.22802 15.1377C1.22802 7.36132 7.55006 1.0348 15.3209 1.0348C23.0912 1.0348 29.413 7.36132 29.413 15.1377C29.413 22.9145 23.0912 29.2415 15.3209 29.2415Z" fill="#464342"/>
</svg>
